<svg xmlns="http://www.w3.org/2000/svg" width="23.695" height="23.694" viewBox="0 0 23.695 23.694">
  <path id="Icon_awesome-linkedin-in" data-name="Icon awesome-linkedin-in" d="M5.3,23.7H.391V7.876H5.3ZM2.845,5.718A2.859,2.859,0,1,1,5.69,2.846,2.869,2.869,0,0,1,2.845,5.718ZM23.69,23.7h-4.9v-7.7c0-1.835-.037-4.189-2.554-4.189-2.554,0-2.945,1.994-2.945,4.057V23.7H8.381V7.876h4.711v2.158h.069a5.162,5.162,0,0,1,4.648-2.555c4.972,0,5.886,3.274,5.886,7.526V23.7Z" transform="translate(0 -0.001)" fill="#fff"/>
</svg>
