<svg xmlns="http://www.w3.org/2000/svg" width="27.08" height="21.994" viewBox="0 0 27.08 21.994">
  <path id="Icon_awesome-twitter" data-name="Icon awesome-twitter" d="M24.3,8.862c.017.241.017.481.017.722A15.683,15.683,0,0,1,8.523,25.375,15.684,15.684,0,0,1,0,22.883a11.481,11.481,0,0,0,1.34.069,11.115,11.115,0,0,0,6.89-2.371,5.56,5.56,0,0,1-5.189-3.849,7,7,0,0,0,1.048.086,5.87,5.87,0,0,0,1.461-.189A5.551,5.551,0,0,1,1.1,11.182v-.069a5.589,5.589,0,0,0,2.509.7A5.558,5.558,0,0,1,1.89,4.395,15.776,15.776,0,0,0,13.334,10.2,6.265,6.265,0,0,1,13.2,8.931a5.555,5.555,0,0,1,9.605-3.8,10.927,10.927,0,0,0,3.522-1.34,5.535,5.535,0,0,1-2.44,3.059,11.126,11.126,0,0,0,3.2-.859A11.93,11.93,0,0,1,24.3,8.862Z" transform="translate(0 -3.381)" fill="#fff"/>
</svg>
