<?xml version="1.0" encoding="utf-8"?>
<!-- Generator: Adobe Illustrator 25.4.1, SVG Export Plug-In . SVG Version: 6.00 Build 0)  -->
<svg version="1.1" id="Layer_1" xmlns="http://www.w3.org/2000/svg" xmlns:xlink="http://www.w3.org/1999/xlink" x="0px" y="0px"
	 viewBox="0 0 308.03 45.78" style="enable-background:new 0 0 308.03 45.78;" xml:space="preserve">
<style type="text/css">
	.st0{fill:#5AB3DE;}
	.st1{fill:#FFFFFF;}
	.st2{opacity:0.16;}
	.st3{fill:#E94A2F;}
</style>
<g>
	<circle class="st0" cx="239.12" cy="21.97" r="19.58"/>
	<path class="st1" d="M254.41,19.44c-0.24-0.98-1.15-1.69-2.38-1.84c-0.78-0.1-1.69,0.06-2.32,0.56c-0.29-0.37-0.67-0.66-1.14-0.86
		c-2.57-1.07-5.27-2.13-8.09-3.2c-0.88-0.33-1.88-0.33-2.77,0c-2.82,1.07-5.52,2.13-8.09,3.2c-0.46,0.19-0.84,0.48-1.12,0.83
		c-0.63-0.48-1.52-0.62-2.28-0.53c-1.23,0.15-2.14,0.86-2.38,1.84c-0.21,0.87,0.1,1.89,0.91,3.02c0.91,1.26,2.46,2.64,4.59,4.1
		c0.05,0.06,0.11,0.13,0.17,0.18c2.25,2.11,5.71,4.62,9.57,4.62c3.87,0,7.32-2.5,9.57-4.62c0.05-0.05,0.1-0.09,0.14-0.14l0.01,0.02
		c2.18-1.48,3.75-2.87,4.68-4.15C254.31,21.33,254.62,20.32,254.41,19.44z M225.24,22.1c-0.7-0.96-0.98-1.83-0.81-2.52
		c0.21-0.88,1.1-1.29,1.86-1.38c0.74-0.09,1.44,0.09,1.88,0.45c-0.26,0.54-0.35,1.19-0.23,1.86c0.25,1.5,0.51,3,0.76,4.5
		c0.02,0.14,0.06,0.28,0.09,0.42C227.18,24.24,225.99,23.13,225.24,22.1z M253,22.1c-0.75,1.04-1.97,2.18-3.63,3.38
		c0.05-0.16,0.08-0.31,0.11-0.47c0.25-1.5,0.51-3,0.76-4.5c0.11-0.66,0.03-1.29-0.21-1.83c0.44-0.39,1.16-0.58,1.93-0.48
		c0.76,0.09,1.65,0.51,1.86,1.38C253.98,20.27,253.7,21.14,253,22.1z"/>
	<g>
		<path class="st0" d="M245.12,19.37c-1.1-0.13-1.66-0.26-2.55-0.36c-0.85-0.1-2.02-0.19-3.48-0.2c-1.46-0.01-2.58,0.06-3.36,0.17
			c-0.83,0.12-1.33,0.29-2.66,0.47C237.08,19.47,241.1,19.45,245.12,19.37z"/>
	</g>
	<g>
		<path class="st0" d="M233.08,26.18c0.24,0.37,0.92,0.85,1.97,1.22c1.04,0.38,2.46,0.65,4.01,0.63c3.14-0.02,5.53-1.15,6.06-1.75
			C241.29,27.66,236.84,27.62,233.08,26.18z"/>
	</g>
	<g>
		<path class="st0" d="M242.7,23.84c-2.34,0.08-4.69,0.07-7.03-0.05c-0.5-0.02-3.98-0.79-4.39-1.08c5.21,0.37,10.43,0.33,15.63-0.12
			C246.51,22.95,243.23,23.82,242.7,23.84z"/>
	</g>
	<circle class="st0" cx="192.82" cy="22.32" r="19.58"/>
	<path class="st1" d="M202.5,26.2c-0.21,0-0.43,0.07-0.63,0.2c-0.52-0.2-1-0.47-1.45-0.81c0.24-0.68,0.38-1.37,0.43-2.06
		c0.87-0.27,1.75-0.38,2.63-0.34c0.17,0.27,0.41,0.49,0.66,0.59c0.51,0.21,0.91-0.49,0.86-1.57c-0.05-1.08-0.52-1.74-1.01-1.48
		c-0.24,0.13-0.44,0.36-0.59,0.63c-0.9,0.13-1.8,0.11-2.72-0.09c-0.1-0.46-0.24-0.92-0.42-1.36c0.48-0.39,1-0.69,1.57-0.91
		c0.21,0.13,0.44,0.21,0.65,0.21c0.43-0.01,0.49-0.63,0.11-1.38c-0.38-0.74-0.92-1.06-1.18-0.72c-0.13,0.16-0.2,0.39-0.22,0.63
		c-0.52,0.33-1.09,0.58-1.7,0.74c-0.5-0.75-1.14-1.43-1.9-1.99c0.11-1.18,0.46-2.23,1.06-3.16c0.28-0.01,0.55-0.1,0.75-0.25
		c0.39-0.3,0.03-0.92-0.82-1.35c-0.85-0.43-1.56-0.37-1.58,0.12c-0.01,0.24,0.08,0.49,0.22,0.72c-0.41,1.03-1.06,1.94-1.95,2.72
		c-0.54-0.17-1.09-0.29-1.64-0.34c-0.15-0.62-0.19-1.23-0.15-1.85c0.21-0.13,0.39-0.3,0.48-0.5c0.18-0.39-0.36-0.72-1.19-0.71
		c-0.83,0.01-1.36,0.36-1.17,0.74c0.09,0.19,0.26,0.35,0.47,0.47c0.07,0.61,0.04,1.23-0.08,1.85c-0.76,0.08-1.5,0.27-2.21,0.55
		c-0.93-0.67-1.64-1.49-2.13-2.44c0.13-0.25,0.19-0.53,0.16-0.77c-0.06-0.48-0.78-0.48-1.58,0.03c-0.8,0.52-1.1,1.17-0.68,1.43
		c0.2,0.12,0.47,0.18,0.74,0.17c0.66,0.82,1.1,1.78,1.34,2.88c-0.56,0.47-1.06,1.02-1.48,1.65c-0.54-0.15-1.04-0.38-1.5-0.67
		c-0.01-0.25-0.09-0.48-0.22-0.65c-0.26-0.34-0.8-0.02-1.18,0.73c-0.37,0.75-0.31,1.37,0.12,1.38c0.21,0,0.43-0.07,0.63-0.2
		c0.5,0.19,0.97,0.45,1.41,0.78c-0.29,0.7-0.48,1.41-0.57,2.13c-0.96,0.39-1.93,0.56-2.92,0.51c-0.15-0.24-0.36-0.43-0.58-0.52
		c-0.45-0.19-0.81,0.43-0.76,1.38c0.05,0.95,0.46,1.53,0.89,1.3c0.21-0.11,0.39-0.31,0.52-0.55c0.96-0.14,1.92-0.08,2.9,0.2
		c0.09,0.51,0.22,1.01,0.4,1.49c-0.39,0.28-0.81,0.51-1.26,0.68c-0.21-0.13-0.44-0.21-0.65-0.21c-0.43,0.01-0.49,0.63-0.11,1.38
		c0.38,0.74,0.92,1.06,1.18,0.72c0.13-0.16,0.2-0.39,0.22-0.63c0.4-0.26,0.83-0.46,1.28-0.61c0.56,0.93,1.32,1.76,2.25,2.41
		c-0.16,0.96-0.49,1.83-0.99,2.61c-0.28,0.01-0.55,0.1-0.75,0.25c-0.39,0.3-0.03,0.92,0.82,1.35c0.85,0.43,1.56,0.37,1.58-0.12
		c0.01-0.24-0.08-0.49-0.22-0.72c0.34-0.87,0.86-1.65,1.55-2.34c0.7,0.25,1.42,0.39,2.14,0.43c0.07,0.46,0.09,0.92,0.05,1.39
		c-0.21,0.13-0.39,0.3-0.48,0.5c-0.18,0.39,0.36,0.72,1.19,0.71c0.83-0.01,1.36-0.36,1.17-0.74c-0.09-0.19-0.26-0.35-0.47-0.47
		c-0.05-0.47-0.05-0.95,0.01-1.42c0.71-0.09,1.41-0.27,2.08-0.55c0.61,0.72,1.05,1.5,1.32,2.36c-0.17,0.23-0.28,0.49-0.29,0.73
		c-0.02,0.49,0.69,0.61,1.56,0.23c0.88-0.38,1.28-0.97,0.91-1.29c-0.18-0.16-0.43-0.26-0.7-0.29c-0.48-0.88-0.76-1.85-0.83-2.91
		c0.74-0.6,1.39-1.33,1.89-2.2c0.52,0.15,1.01,0.37,1.46,0.66c0.01,0.25,0.09,0.48,0.22,0.65c0.26,0.34,0.8,0.02,1.18-0.73
		C202.99,26.83,202.93,26.21,202.5,26.2z M187.67,21.51c-0.38-0.19-0.43-0.85-0.12-1.46c0.31-0.61,0.87-0.95,1.25-0.75
		c0.38,0.19,0.43,0.85,0.12,1.46C188.61,21.37,188.05,21.71,187.67,21.51z M190.07,27.39c-0.37,0.31-1.02,0.14-1.47-0.38
		c-0.44-0.52-0.51-1.2-0.14-1.51s1.02-0.14,1.47,0.38C190.37,26.4,190.43,27.08,190.07,27.39z M192.26,22.53
		c-0.64-0.33-0.89-1.11-0.56-1.75c0.33-0.64,1.11-0.89,1.75-0.56c0.64,0.33,0.89,1.11,0.56,1.75
		C193.68,22.61,192.9,22.86,192.26,22.53z M195.67,19.48c-0.63-0.32-1-0.85-0.83-1.19c0.17-0.33,0.82-0.34,1.45-0.02
		c0.63,0.32,1,0.85,0.83,1.19C196.95,19.8,196.3,19.8,195.67,19.48z M195.02,28.31c-0.68-0.15-1.13-0.73-1-1.32
		c0.12-0.58,0.78-0.93,1.45-0.79c0.68,0.15,1.13,0.73,1,1.32C196.35,28.1,195.7,28.46,195.02,28.31z M198.92,25.55
		c-0.36-0.09-0.53-0.63-0.38-1.21c0.15-0.58,0.56-0.97,0.92-0.88c0.36,0.09,0.53,0.63,0.38,1.21
		C199.69,25.25,199.27,25.64,198.92,25.55z"/>
	<circle class="st0" cx="285.43" cy="21.97" r="19.58"/>
	<g class="st2">
		<defs>
			<circle id="SVGID_1_" class="st2" cx="285.43" cy="21.97" r="19.58"/>
		</defs>
		<clipPath id="SVGID_00000055673982300427140110000015777039231276679310_">
			<use xlink:href="#SVGID_1_"  style="overflow:visible;"/>
		</clipPath>
	</g>
	<g>
		<path class="st1" d="M289.09,25.07c0.28-0.32,0-1.03-0.61-1.57l-2-1.78c0.13,0.51,0.08,1.05-0.17,1.53
			c-0.09,0.18-0.21,0.35-0.35,0.5l0.24,0.21L289.09,25.07z"/>
		<path class="st1" d="M291.04,20.2l-4.39-3.91c-0.06-0.06-0.13-0.11-0.19-0.15l1.65,0.07c0.64,0.03,1.18-0.47,1.2-1.11v0
			c0.03-0.64-0.47-1.18-1.11-1.2l-5.05-0.21c-0.93-0.18-1.93,0.12-2.6,0.87l-1.7,1.91c-1.01,1.14-0.91,2.9,0.23,3.91l1.1,0.98
			l3.52-1.16c0.84-0.27,1.75-0.02,2.33,0.65c0.11,0.13,0.2,0.27,0.28,0.42c0,0.01,0.01,0.02,0.01,0.03l2.9,2.58
			c0.69,0.61,1.48,0.85,1.77,0.53l0.2-0.23c0.29-0.32-0.04-1.08-0.73-1.7l-3.7-3.29c0.03-0.06,0.06-0.12,0.09-0.19l2.93,2.61
			c0.6,0.54,1.33,0.71,1.62,0.39l0.21-0.24C291.9,21.44,291.64,20.74,291.04,20.2z"/>
	</g>
	<path class="st1" d="M285.48,21.91L285.48,21.91c0.2,0.61-0.13,1.26-0.74,1.46l-1.57,0.52c0.08,0.02,0.15,0.05,0.23,0.08l5.48,2.12
		c0.75,0.29,1.24,0.86,1.08,1.26l-0.11,0.29c-0.16,0.4-0.9,0.49-1.65,0.2l-3.66-1.42c0,0.07-0.01,0.14-0.02,0.2l4.62,1.79
		c0.86,0.33,1.43,0.93,1.28,1.33l-0.11,0.29c-0.16,0.4-0.98,0.46-1.84,0.13l-4.54-1.76l-0.08,0.2l3.79,1.47
		c0.77,0.3,1.28,0.87,1.12,1.27l-0.11,0.28c-0.15,0.4-0.91,0.48-1.68,0.18l-3.87-1.5c-0.05,0.07-0.1,0.13-0.15,0.19l2.76,1.07
		c0.64,0.25,1.04,0.78,0.88,1.17l-0.1,0.27c-0.15,0.4-0.8,0.52-1.44,0.27l-4.77-1.84c-0.07-0.03-0.13-0.05-0.19-0.09
		c-0.08-0.02-0.16-0.05-0.24-0.08l-2.11-0.82c-1.42-0.55-2.13-2.16-1.58-3.58l0.92-2.38c0.37-0.94,1.2-1.57,2.13-1.73l4.81-1.58
		C284.63,20.97,285.28,21.3,285.48,21.91z"/>
	<circle class="st1" cx="293.15" cy="26.96" r="1.46"/>
	<circle class="st1" cx="276.6" cy="21.27" r="1.46"/>
	<circle class="st1" cx="294.26" cy="22.46" r="1.17"/>
	<circle class="st1" cx="297.11" cy="25.22" r="1.13"/>
	<circle class="st1" cx="292.55" cy="18.02" r="0.82"/>
	<circle class="st1" cx="292.12" cy="30.64" r="0.82"/>
	<g>
		<path class="st3" d="M9.69,42.41h145.79c2.77,0,5.02-2.25,5.02-5.02V7.76c0-2.77-2.25-5.02-5.02-5.02H9.69
			c-2.77,0-5.02,2.25-5.02,5.02v29.63C4.67,40.16,6.92,42.41,9.69,42.41z"/>
		<g>
			<path class="st1" d="M31.48,24.53c-0.13,1.35-0.62,2.4-1.49,3.16c-0.87,0.76-2.02,1.13-3.47,1.13c-1.01,0-1.89-0.24-2.66-0.72
				c-0.77-0.48-1.36-1.16-1.78-2.04c-0.42-0.88-0.63-1.9-0.65-3.07v-1.18c0-1.19,0.21-2.24,0.63-3.15c0.42-0.91,1.03-1.61,1.82-2.1
				s1.7-0.74,2.74-0.74c1.4,0,2.52,0.38,3.37,1.13c0.85,0.76,1.35,1.83,1.49,3.21h-2.19c-0.1-0.91-0.37-1.57-0.79-1.97
				s-1.05-0.6-1.87-0.6c-0.96,0-1.69,0.35-2.2,1.05c-0.51,0.7-0.77,1.72-0.79,3.07v1.12c0,1.37,0.25,2.41,0.73,3.13
				c0.49,0.72,1.21,1.08,2.15,1.08c0.86,0,1.51-0.19,1.95-0.58c0.43-0.39,0.71-1.03,0.83-1.94H31.48z"/>
			<path class="st1" d="M43.54,22.65c0,1.24-0.21,2.33-0.64,3.26c-0.43,0.93-1.04,1.65-1.84,2.15c-0.8,0.5-1.71,0.75-2.75,0.75
				c-1.02,0-1.94-0.25-2.74-0.75c-0.8-0.5-1.42-1.21-1.86-2.14c-0.44-0.93-0.66-2-0.67-3.21v-0.71c0-1.23,0.22-2.32,0.66-3.27
				c0.44-0.94,1.05-1.67,1.85-2.17c0.8-0.5,1.71-0.75,2.74-0.75c1.03,0,1.94,0.25,2.74,0.74c0.8,0.5,1.41,1.21,1.85,2.14
				s0.65,2.01,0.66,3.24V22.65z M41.34,21.99c0-1.4-0.27-2.48-0.79-3.22c-0.53-0.75-1.28-1.12-2.25-1.12
				c-0.95,0-1.69,0.37-2.23,1.12c-0.54,0.74-0.81,1.8-0.82,3.16v0.73c0,1.39,0.27,2.46,0.81,3.22c0.54,0.76,1.29,1.14,2.25,1.14
				c0.97,0,1.72-0.37,2.25-1.11c0.52-0.74,0.79-1.82,0.79-3.25V21.99z"/>
			<path class="st1" d="M50.37,23.78h-2.45v4.86h-2.2V16h4.45c1.46,0,2.59,0.33,3.38,0.98c0.79,0.66,1.19,1.6,1.19,2.84
				c0,0.85-0.2,1.55-0.61,2.13s-0.98,1.01-1.71,1.32l2.84,5.27v0.11h-2.35L50.37,23.78z M47.92,22.01h2.26
				c0.74,0,1.32-0.19,1.74-0.56c0.42-0.37,0.63-0.88,0.63-1.53c0-0.68-0.19-1.2-0.58-1.57c-0.38-0.37-0.96-0.56-1.72-0.57h-2.32
				V22.01z"/>
			<path class="st1" d="M66.92,22.65c0,1.24-0.21,2.33-0.64,3.26c-0.43,0.93-1.04,1.65-1.84,2.15c-0.8,0.5-1.71,0.75-2.75,0.75
				c-1.02,0-1.94-0.25-2.74-0.75c-0.8-0.5-1.42-1.21-1.86-2.14c-0.44-0.93-0.66-2-0.67-3.21v-0.71c0-1.23,0.22-2.32,0.66-3.27
				c0.44-0.94,1.05-1.67,1.85-2.17c0.8-0.5,1.71-0.75,2.74-0.75c1.03,0,1.94,0.25,2.74,0.74c0.8,0.5,1.41,1.21,1.85,2.14
				s0.65,2.01,0.66,3.24V22.65z M64.72,21.99c0-1.4-0.27-2.48-0.79-3.22c-0.53-0.75-1.28-1.12-2.25-1.12
				c-0.95,0-1.69,0.37-2.23,1.12c-0.54,0.74-0.81,1.8-0.82,3.16v0.73c0,1.39,0.27,2.46,0.81,3.22c0.54,0.76,1.29,1.14,2.25,1.14
				c0.97,0,1.72-0.37,2.25-1.11c0.52-0.74,0.79-1.82,0.79-3.25V21.99z"/>
			<path class="st1" d="M79.14,28.64h-2.2l-5.64-8.97v8.97h-2.2V16h2.2L76.96,25V16h2.18V28.64z"/>
			<path class="st1" d="M88.82,25.7h-4.9l-1.03,2.94h-2.28L85.38,16h1.97l4.79,12.65h-2.29L88.82,25.7z M84.53,23.93h3.67
				l-1.83-5.25L84.53,23.93z"/>
			<path class="st1" d="M97.36,25.89l3.21-9.89h2.42l-4.55,12.65h-2.13L91.78,16h2.41L97.36,25.89z"/>
			<path class="st1" d="M106.73,28.64h-2.19V16h2.19V28.64z"/>
			<path class="st1" d="M114.08,23.78h-2.45v4.86h-2.2V16h4.45c1.46,0,2.59,0.33,3.38,0.98c0.79,0.66,1.19,1.6,1.19,2.84
				c0,0.85-0.2,1.55-0.61,2.13s-0.98,1.01-1.71,1.32l2.84,5.27v0.11h-2.35L114.08,23.78z M111.63,22.01h2.26
				c0.74,0,1.32-0.19,1.74-0.56c0.42-0.37,0.63-0.88,0.63-1.53c0-0.68-0.19-1.2-0.58-1.57c-0.38-0.37-0.96-0.56-1.72-0.57h-2.32
				V22.01z"/>
			<path class="st1" d="M129.79,16v8.45c0,1.34-0.43,2.41-1.29,3.19c-0.86,0.78-2,1.18-3.44,1.18c-1.45,0-2.6-0.39-3.45-1.16
				c-0.85-0.77-1.28-1.85-1.28-3.22V16h2.19v8.46c0,0.85,0.21,1.49,0.64,1.94c0.43,0.45,1.06,0.67,1.89,0.67
				c1.69,0,2.54-0.89,2.54-2.67V16H129.79z"/>
			<path class="st1" d="M138.74,25.39c0-0.56-0.2-0.98-0.59-1.29c-0.39-0.3-1.1-0.6-2.12-0.91c-1.02-0.31-1.83-0.65-2.43-1.02
				c-1.15-0.72-1.73-1.67-1.73-2.83c0-1.02,0.42-1.86,1.25-2.52s1.91-0.99,3.24-0.99c0.88,0,1.67,0.16,2.35,0.49
				c0.69,0.32,1.23,0.79,1.62,1.38c0.39,0.6,0.59,1.26,0.59,1.99h-2.19c0-0.66-0.21-1.18-0.62-1.55s-1.01-0.56-1.78-0.56
				c-0.72,0-1.28,0.15-1.67,0.46c-0.4,0.31-0.59,0.74-0.59,1.29c0,0.46,0.21,0.85,0.64,1.16c0.43,0.31,1.13,0.61,2.12,0.9
				c0.98,0.29,1.78,0.62,2.37,1c0.6,0.37,1.03,0.8,1.31,1.29c0.28,0.48,0.42,1.05,0.42,1.7c0,1.05-0.4,1.89-1.21,2.51
				c-0.81,0.62-1.9,0.93-3.29,0.93c-0.92,0-1.76-0.17-2.52-0.51c-0.77-0.34-1.36-0.81-1.79-1.4s-0.64-1.29-0.64-2.08h2.2
				c0,0.72,0.24,1.27,0.71,1.67s1.16,0.59,2.04,0.59c0.76,0,1.34-0.16,1.72-0.46C138.55,26.31,138.74,25.89,138.74,25.39z"/>
		</g>
	</g>
</g>
</svg>
