<svg xmlns="http://www.w3.org/2000/svg" width="1029" height="941.632" viewBox="0 0 1029 941.632">
  <g id="Group_114" data-name="Group 114" transform="translate(-4.814 -7)">
    <path id="Path_93" data-name="Path 93" d="M477.35,580.323a2.43,2.43,0,0,1-1.729-4.139,262.578,262.578,0,0,0,40.537-53.127l.075-.132.19-.437A259.188,259.188,0,0,0,550.611,393.8q0-3.693-.1-7.369l-.006-.182c-.068-2.282-.161-4.454-.278-6.624-.092-1.69-.214-3.376-.336-5.063l-.122-1.715q-.27-3.384-.628-6.76a258.956,258.956,0,0,0-53.993-132.9c-3.562-4.525-7.35-9.018-11.259-13.35l-.44-.485c-1.581-1.745-3.267-3.548-5.153-5.512l-1.088-1.13c-1.58-1.626-3.191-3.23-4.817-4.816,0,0-1.025-1.014-1.279-1.258-1.967-1.891-3.948-3.744-5.892-5.5-.471-.426-.946-.84-1.422-1.253l-.868-.758c-1.22-1.078-2.439-2.156-3.681-3.214-.937-.8-1.886-1.576-2.835-2.357l-.479-.394c-.927-.762-1.851-1.523-2.785-2.269-1.367-1.1-2.754-2.173-4.146-3.241-.9-.694-1.747-1.339-2.6-1.973q-2-1.5-4.048-2.965-1.521-1.092-3.056-2.163-1.8-1.258-3.62-2.483-1.947-1.309-3.909-2.576-1.453-.942-2.918-1.869a260.682,260.682,0,0,0-46.158-22.958,2.441,2.441,0,0,1,.839-4.719,2.384,2.384,0,0,1,.844.156,265.665,265.665,0,0,1,44.956,22.117l.2.116c.1.05.2.1.3.141.263.166,1.6,1.024,1.6,1.024.956.6,1.906,1.215,2.857,1.829l.14.09q1.984,1.285,3.953,2.6,1.868,1.256,3.709,2.542,1.56,1.089,3.106,2.2,2.073,1.49,4.117,3.014c.9.67,1.784,1.35,2.671,2.03,1.4,1.078,2.8,2.164,4.184,3.272l.919.718c.391.312.766.63,1.144.948l1.361,1.126c.935.77,1.87,1.539,2.793,2.324,1.25,1.064,2.476,2.147,3.7,3.231l1.077.943c.435.379.873.758,1.3,1.147,1.912,1.729,3.887,3.572,6.039,5.64l1.221,1.2q2.54,2.475,5,5l1.038,1.078c1.78,1.85,3.574,3.767,5.328,5.7l.376.411a261.818,261.818,0,0,1,66.486,148.836v.064l.024.172c.246,2.343.456,4.576.635,6.82l.148,2.068c.116,1.613.231,3.227.32,4.848q.176,3.235.27,6.461l.021.487c.077,2.728.117,5.232.117,7.655A262.771,262.771,0,0,1,479.081,579.6,2.414,2.414,0,0,1,477.35,580.323Z" transform="translate(228.377 84.324)" fill="#ffb961"/>
    <path id="Path_94" data-name="Path 94" d="M140.6,458.474a2.434,2.434,0,0,1-2.4-2.1,308.5,308.5,0,0,1-2.939-42.341A302.751,302.751,0,0,1,185.124,247.4l.337-.513c1.825-2.767,3.564-5.319,5.316-7.808l1.167-1.642c.578-.815,1.155-1.629,1.745-2.438.076-.082.284-.317.284-.317l1.089-1.506c.628-.869,1.257-1.74,1.9-2.6,50.411-66.682,123.9-108.89,206.915-118.847a2.157,2.157,0,0,1,.291-.018,2.431,2.431,0,0,1,.289,4.845c-81.7,9.8-154.008,51.333-203.616,116.952-1.7,2.256-3.479,4.687-5.426,7.432l-.667.934c-1.8,2.557-3.553,5.136-5.221,7.67l-.344.524a300.751,300.751,0,0,0-46.959,128.774l-.093.426-.014.127a301.537,301.537,0,0,0,.9,76.314,2.431,2.431,0,0,1-2.073,2.743A2.661,2.661,0,0,1,140.6,458.474Z" transform="translate(79.166 63.548)" fill="#1b175b"/>
    <path id="Path_95" data-name="Path 95" d="M693.009,265.26a2.442,2.442,0,0,1-2.118-1.229,320.416,320.416,0,0,0-106.207-111.3l-1.382-.868c-2.963-1.861-5.711-3.532-8.407-5.113l-.918-.532c-3.227-1.877-6.219-3.556-9.154-5.139l-.154-.082a319.038,319.038,0,0,0-214.583-32.067l-.169.029c-9.775,1.972-19.493,4.4-28.961,7.242a320.42,320.42,0,0,0-136.591,82.357,2.432,2.432,0,1,1-3.473-3.4,324.766,324.766,0,0,1,386-58.479l.182.093c3.09,1.67,6.241,3.439,9.384,5.271l.866.5c2.788,1.636,5.682,3.4,8.6,5.234l2.187,1.371c.069.059.141.114.217.167a325.485,325.485,0,0,1,106.779,112.31,2.429,2.429,0,0,1-.906,3.317A2.376,2.376,0,0,1,693.009,265.26Z" transform="translate(106.438 55.09)" fill="#00b7a8"/>
    <path id="Path_96" data-name="Path 96" d="M150.1,543.06a2.426,2.426,0,0,1-2.171-1.329c-2.391-4.69-4.787-9.72-7.326-15.375l-.061-.138-.21-.37c-.122-.278-1.727-4-1.727-4q-1.622-3.748-3.153-7.507l-.381-.948A342.286,342.286,0,0,1,110.319,395.7l-.037-.919c-.074-2.7-.109-5.418-.122-8.139,0,0-.026-1.528-.026-1.837,0-3.191.058-6.548.182-10.562l.021-.607a346.658,346.658,0,0,1,81.989-212.378,2.443,2.443,0,0,1,1.858-.855,2.433,2.433,0,0,1,2.42,2.234,2.417,2.417,0,0,1-.57,1.771,339.429,339.429,0,0,0-58.579,99.13,346.522,346.522,0,0,0-11.222,34.89l-.067.276a341.268,341.268,0,0,0-10.97,75.138l-.019.509c-.114,3.646-.172,7.245-.172,10.716,0,.3.021,1.6.021,1.6.016,2.669.04,5.327.121,7.986l.034.877A340.667,340.667,0,0,0,139.57,511.557l.4.99c.987,2.444,2.021,4.886,3.071,7.323,0,0,.763,1.772.991,2.288,2.626,5.968,5.394,11.811,8.226,17.366a2.433,2.433,0,0,1-2.161,3.537Z" transform="translate(63.916 93.095)" fill="#00b7a8"/>
    <path id="Path_97" data-name="Path 97" d="M344.355,629.025a2.423,2.423,0,0,1-.789-.133c-7.795-2.676-15.915-5.8-24.132-9.283l-.143-.06-.447-.135c-1.265-.535-2.6-1.133-3.929-1.729l-3.039-1.351c-2.73-1.232-5.561-2.557-8.41-3.93l-1.366-.648c-6.254-3.047-12.367-6.232-18.167-9.466A362.317,362.317,0,0,1,128.584,432.964l-.072-.267-.05-.149-.064-.145a365.786,365.786,0,0,1-28.847-101.72,2.43,2.43,0,0,1,2.091-2.728,2.348,2.348,0,0,1,.331-.023,2.433,2.433,0,0,1,2.4,2.113A361.082,361.082,0,0,0,304.239,607.388l1.3.615c3,1.446,5.74,2.727,8.37,3.913l1.562.691c9.771,4.348,19.741,8.274,29.636,11.671a2.431,2.431,0,0,1,1.34,3.485A2.18,2.18,0,0,1,344.355,629.025Z" transform="translate(57.481 194.767)" fill="#f0eec8"/>
    <path id="Path_98" data-name="Path 98" d="M111.726,325.374a2.435,2.435,0,0,1-2.306-3.206A365.62,365.62,0,0,1,294.743,110.241l.214-.114c.09-.053.177-.109.264-.167,5.584-2.727,11.508-5.422,17.611-8.01l1.012-.44c1.363-.574,2.738-1.123,4.115-1.673l1.466-.585A365.33,365.33,0,0,1,443.155,72.9l.443.042.166,0c4.655-.162,8.735-.241,12.476-.241A365.59,365.59,0,0,1,633.809,119a369.673,369.673,0,0,1,44.723,29.366,2.43,2.43,0,1,1-2.957,3.858,364.981,364.981,0,0,0-44.136-28.977,360.692,360.692,0,0,0-175.2-45.69A366.148,366.148,0,0,0,321.665,103.59l-1.539.615c-1.478.588-2.955,1.176-4.417,1.793l-.729.318a361.055,361.055,0,0,0-200.95,217.4A2.427,2.427,0,0,1,111.726,325.374Z" transform="translate(63.406 39.869)" fill="#ffb961"/>
    <path id="Path_99" data-name="Path 99" d="M249.4,649.979a2.413,2.413,0,0,1-1.4-.445,382.059,382.059,0,0,1-78.588-74.153l-.186-.235c-1.845-2.324-3.58-4.551-5.288-6.8q-1.863-2.447-3.683-4.911l-1.472-2.021a386.109,386.109,0,0,1-45.372-81.638l-.937-2.34c-.453-1.134-.906-2.269-1.348-3.408-.659-1.69-1.3-3.381-1.927-5.073l-.3-.781a382.666,382.666,0,0,1-22.517-165.24l.067-.452a385.761,385.761,0,0,1,9.3-57.777,2.42,2.42,0,0,1,2.359-1.864,2.473,2.473,0,0,1,.57.069,2.43,2.43,0,0,1,1.8,2.931,381.114,381.114,0,0,0,.924,181.733,385.177,385.177,0,0,0,12.071,38.946l.227.6q.959,2.589,1.959,5.16c.474,1.221.959,2.434,1.445,3.646l.811,2.023a385.583,385.583,0,0,0,22.991,46.963,389.59,389.59,0,0,0,21.813,33.651l1.435,1.972c1.21,1.649,2.446,3.28,3.685,4.911q2.514,3.3,5.086,6.543l.194.243a384.158,384.158,0,0,0,36.791,39.912c.079.095.3.342.3.342l.1.095a380.954,380.954,0,0,0,40.492,32.98,2.433,2.433,0,0,1-.805,4.343A2.545,2.545,0,0,1,249.4,649.979Z" transform="translate(48.691 143.128)" fill="#096386"/>
    <path id="Path_100" data-name="Path 100" d="M172.532,703.052a2.432,2.432,0,0,1-1.8-.8A428.537,428.537,0,0,1,71.991,516.392l-.071-.291-.08-.183a426.867,426.867,0,0,1,1.6-206.174l.056-.217.011-.088.419-1.583c.284-1.078.57-2.164.863-3.247.347-1.284.705-2.565,1.062-3.847l.76-2.692q.786-2.738,1.61-5.46l.3-.995q1.085-3.572,2.222-7.11c.967-3,2.057-6.219,3.331-9.855l.087-.254c1.142-3.249,2.316-6.464,3.485-9.558l.513-1.334q1.4-3.656,2.863-7.289c.627-1.554,1.266-3.1,1.907-4.641.585-1.4,1.171-2.8,1.772-4.2a422.951,422.951,0,0,1,69.321-110.634l.2-.161.119-.111.106-.124c7.935-9.129,16.273-17.939,24.786-26.187a2.432,2.432,0,0,1,3.384,3.493,423.594,423.594,0,0,0-93.43,135.608q-.938,2.186-1.848,4.377-.9,2.155-1.782,4.337-1.468,3.649-2.875,7.319l-.476,1.237c-1.229,3.257-2.394,6.452-3.463,9.5l-.084.243c-1.147,3.272-2.28,6.635-3.352,9.951q-1.1,3.4-2.137,6.813l-.28.942q-.817,2.707-1.6,5.433c-.21.728-.75,2.659-.75,2.659q-.53,1.9-1.048,3.794-.439,1.62-.86,3.239a423.359,423.359,0,0,0-6.338,185.866l.045.246.026.071a422.055,422.055,0,0,0,101.974,203.7,2.43,2.43,0,0,1-1.8,4.064Z" transform="translate(33.484 62.192)" fill="#f3826f"/>
    <path id="Path_101" data-name="Path 101" d="M79.1,560.088a2.447,2.447,0,0,1-2.272-1.568c-4.239-11.136-8.089-22.6-11.441-34.084a447.621,447.621,0,0,1-17.78-111.1c-3.135-98.017,27.007-195.985,84.874-275.86a2.431,2.431,0,1,1,3.937,2.852C79.184,219.337,49.37,316.239,52.47,413.182a442.728,442.728,0,0,0,17.586,109.89c3.317,11.354,7.125,22.7,11.319,33.717a2.434,2.434,0,0,1-2.19,3.3Z" transform="translate(25.836 78.574)" fill="#c0394f"/>
    <path id="Path_102" data-name="Path 102" d="M594.935,493.889a2.433,2.433,0,0,1-2.144-3.309A457.633,457.633,0,0,0,623.3,348.238a465.4,465.4,0,0,0-3.4-84.65,2.436,2.436,0,0,1,2.094-2.728,2.379,2.379,0,0,1,.321-.021,2.439,2.439,0,0,1,2.409,2.113,470.53,470.53,0,0,1,3.436,85.537A462.542,462.542,0,0,1,597.326,492.34a2.452,2.452,0,0,1-2.269,1.554Z" transform="translate(356.731 154.049)" fill="#1b175b"/>
    <path id="Path_103" data-name="Path 103" d="M542.847,590.687a2.43,2.43,0,0,1-1.75-4.118A482.637,482.637,0,0,0,656.042,388.71q1.246-4.22,2.407-8.441a2.432,2.432,0,0,1,4.689,1.292q-1.174,4.266-2.433,8.524A487.506,487.506,0,0,1,544.6,589.944,2.414,2.414,0,0,1,542.847,590.687Z" transform="translate(325.046 225.445)" fill="#ffb961"/>
    <path id="Path_104" data-name="Path 104" d="M635.54,530.271a2.439,2.439,0,0,1-2.328-3.143,497.944,497.944,0,0,0,21.67-145.357,506.786,506.786,0,0,0-6.932-83.243,502.843,502.843,0,0,0-39.642-128.571,2.432,2.432,0,1,1,4.412-2.046,507.732,507.732,0,0,1,40.024,129.817,511.656,511.656,0,0,1,7,84.043,502.8,502.8,0,0,1-21.882,146.776A2.448,2.448,0,0,1,635.54,530.271Z" transform="translate(366.112 96.799)" fill="#00b7a8"/>
    <path id="Path_105" data-name="Path 105" d="M155.919,466.125a2.435,2.435,0,0,1-2.377-1.946A284.464,284.464,0,0,1,432.325,123a287.69,287.69,0,0,1,39.994,2.8l.37.053.373-.034c.1-.01.209-.016.315-.016a1.792,1.792,0,0,1,.262.016,283.807,283.807,0,0,1,88.157,28.128l2.221,1.144c.627.321,1.255.644,1.878.975.4.214,3.492,1.891,3.492,1.891,1.919,1.051,3.829,2.116,5.724,3.212q4.886,2.822,9.455,5.7a284.744,284.744,0,0,1,132.756,241.3,2.431,2.431,0,0,1-2.428,2.43h0a2.437,2.437,0,0,1-2.434-2.434A279.89,279.89,0,0,0,581.972,170.984c-2.974-1.874-6.079-3.747-9.227-5.566q-2.839-1.641-5.714-3.206l-1.424-.773q-2.379-1.282-4.776-2.516l-1.234-.638a282,282,0,0,0-127.259-30.431A279.761,279.761,0,0,0,158.307,463.207a2.427,2.427,0,0,1-1.9,2.867A2.331,2.331,0,0,1,155.919,466.125Z" transform="translate(86.761 70.395)" fill="#096386"/>
    <path id="Path_106" data-name="Path 106" d="M368.8,653.562a2.432,2.432,0,0,1-.513-4.808A320.337,320.337,0,0,0,620.1,336.274q0-1.492-.011-2.984l0-.3a320.7,320.7,0,0,0-13.533-88.923,2.432,2.432,0,0,1,1.629-3.027,2.423,2.423,0,0,1,3.027,1.633,323.777,323.777,0,0,1-15.67,228.306l-.128.23-.035.082c-2.966,6.477-6.117,12.821-9.367,18.854A324.847,324.847,0,0,1,369.322,653.5,2.44,2.44,0,0,1,368.8,653.562Z" transform="translate(219.421 141.973)" fill="#900048"/>
    <path id="Path_107" data-name="Path 107" d="M294.77,619.487a2.4,2.4,0,0,1-1.149-.292c-8.772-4.727-17.462-9.943-25.826-15.5l-.148-.1-.1-.055c-7.793-5.187-15.474-10.8-22.827-16.689l-1.25-1.022c-1.395-1.126-2.791-2.258-4.167-3.41-1.541-1.287-3.061-2.6-4.576-3.911l-.7-.6a325.638,325.638,0,0,1-90.708-131.1l-.077-.236c-2.486-6.667-4.76-13.438-6.781-20.181a323.528,323.528,0,0,1-2.274-178.846,2.433,2.433,0,0,1,4.692,1.287,320.3,320.3,0,0,0,98.307,325.381l1.271,1.088c1.3,1.128,2.611,2.256,3.937,3.365q2.519,2.107,5.079,4.159l.272.22a321.2,321.2,0,0,0,48.192,31.876,2.433,2.433,0,0,1-1.16,4.573Z" transform="translate(71.534 144.893)" fill="#f3826f"/>
    <path id="Path_108" data-name="Path 108" d="M340.668,600.116a345.387,345.387,0,0,1-39.009-2.221,2.431,2.431,0,0,1,.275-4.846,2.69,2.69,0,0,1,.278.014,340.365,340.365,0,0,0,38.456,2.189A337.754,337.754,0,0,0,479.5,565.475a345.025,345.025,0,0,0,33.6-17.338q2.271-1.338,4.519-2.7l1.528-.937q2.644-1.629,5.258-3.3l.135-.088A340.137,340.137,0,0,0,649.626,397.073l.53-1.141c.668-1.466,1.318-2.947,1.965-4.427l.262-.6q.513-1.169,1.017-2.341c1.813-4.233,3.5-8.4,5.017-12.373a2.448,2.448,0,0,1,2.272-1.567,2.435,2.435,0,0,1,2.271,3.3c-1.268,3.326-2.7,6.869-4.366,10.83l-.092.214-.04.153-.569,1.3c-.443,1.04-.9,2.075-1.353,3.109-.643,1.464-1.287,2.926-1.947,4.38l-.6,1.29A343.593,343.593,0,0,1,527.15,545.214l-.076.048q-2.712,1.738-5.459,3.426l-1.382.848q-2.353,1.432-4.737,2.833l-.815.487-.121.059a351.348,351.348,0,0,1-33.078,17A342.56,342.56,0,0,1,340.668,600.116Z" transform="translate(178.841 223.105)" fill="#c0394f"/>
    <path id="Path_109" data-name="Path 109" d="M716.411,405.234A2.444,2.444,0,0,1,713.992,403,340.706,340.706,0,0,0,522.942,124.21l-.3-.143c-.856-.415-1.713-.831-2.574-1.237q-2.738-1.294-5.51-2.545c-1.491-.673-2.986-1.326-4.485-1.975l-.872-.381c-1.22-.53-2.438-1.061-3.665-1.573-3.292-1.371-6.259-2.56-9.076-3.638-2.712-1.041-5.451-2.054-8.134-3l-.566-.194q-3.815-1.347-7.662-2.6a338.855,338.855,0,0,0-233.65,8.354,2.433,2.433,0,0,1-3.172-1.337,2.434,2.434,0,0,1,1.339-3.167,343.692,343.692,0,0,1,236.543-8.616l.419.133q4.02,1.314,8.044,2.732l.157.055c2.757.977,5.378,1.935,7.989,2.933l.472.19c2.918,1.118,6,2.352,9.138,3.664,1.173.488,2.333.993,3.495,1.5l1.448.63c1.406.612,2.814,1.224,4.212,1.854q2.832,1.277,5.634,2.6c.959.453,1.915.916,2.871,1.38a346.281,346.281,0,0,1,119.647,95.516,2.445,2.445,0,0,1,.272.429l.148.3.211.265a345.131,345.131,0,0,1,73.523,186.27,2.436,2.436,0,0,1-2.227,2.619C716.545,405.232,716.478,405.234,716.411,405.234Z" transform="translate(144.612 47.473)" fill="#c0394f"/>
    <path id="Path_110" data-name="Path 110" d="M491.086,612.218a2.432,2.432,0,0,1-1.777-4.09,362.2,362.2,0,0,0,74.884-122.075l.254-.691a358.062,358.062,0,0,0,21.768-122.872,363.509,363.509,0,0,0-37.893-161.162,2.431,2.431,0,1,1,4.355-2.163c3.992,8.026,7.854,16.636,11.475,25.588l.069.169.2.368a367.839,367.839,0,0,1,26.684,137.054,362.758,362.758,0,0,1-22.093,124.692l-.734,2.005c-.336.926-.673,1.851-1.022,2.772l-.125.265-.031.082a367.171,367.171,0,0,1-74.236,119.282A2.4,2.4,0,0,1,491.086,612.218Z" transform="translate(293.635 115.802)" fill="#900048"/>
    <path id="Path_111" data-name="Path 111" d="M448.921,655.939a2.432,2.432,0,0,1-1.258-4.517C532.682,600.254,593.6,519.077,619.186,422.848q1-3.77,1.917-7.544c.249-1.022.829-3.489.829-3.489q.646-2.767,1.249-5.528c.307-1.4.611-2.793.9-4.192q.663-3.206,1.269-6.41.48-2.543.922-5.087l.426-2.492a380,380,0,0,0,3.424-100.232c-.1-1.022-.2-2.041-.315-3.058-.167-1.565-.336-3.13-.522-4.7-.789-6.543-1.724-12.961-2.778-19.077a2.449,2.449,0,0,1,2-2.812,2.571,2.571,0,0,1,.406-.034,2.426,2.426,0,0,1,2.391,2.021c1.022,5.939,1.941,12.236,2.732,18.717l.047.31.034.3c.159,1.327.3,2.658.445,3.987,0,0,.3,2.838.405,3.877a381.478,381.478,0,0,1-3.51,101.741l-.36,2.1c-.318,1.814-.641,3.627-.985,5.438-.331,1.748-.683,3.49-1.038,5.23q-.578,2.837-1.2,5.676-.562,2.567-1.159,5.12l-.079.337c-.275,1.178-.549,2.356-.839,3.532q-.875,3.587-1.817,7.149l-.386,1.525A383.222,383.222,0,0,1,500.53,619.48l-.336.236-.076.063A385.134,385.134,0,0,1,450.17,655.59a2.427,2.427,0,0,1-1.249.349Z" transform="translate(268.041 152.447)" fill="#096386"/>
    <path id="Path_112" data-name="Path 112" d="M548.6,625.149a2.43,2.43,0,0,1-2.025-3.766,400.586,400.586,0,0,0,33.907-63.31c.2-.472.881-2.118.881-2.118.559-1.337,1.118-2.68,1.665-4.028s1.081-2.709,1.61-4.065l.818-2.083q.979-2.548,1.927-5.111l.383-1.036q1.065-2.9,2.084-5.822l.112-.318a401.784,401.784,0,0,0,20.17-90.872l.1-.971c.177-1.745.334-3.5.488-5.259l.161-1.878c.127-1.535.239-3.069.349-4.6.061-.868.122-1.735.177-2.6q.13-2.032.24-4.072.084-1.567.157-3.141c.056-1.224.108-2.444.154-3.665q.065-1.788.112-3.577c.032-1.114.063-2.227.085-3.344.026-1.284.04-2.568.053-3.853l.01-.779c.013-1.141.027-2.28.027-3.421a403.048,403.048,0,0,0-39.894-174.562A401.284,401.284,0,0,0,512.7,137.1a2.432,2.432,0,0,1,3.656-3.209,409.358,409.358,0,0,1,39.865,53.694l.119.191.112.138c6.705,10.814,12.992,22.136,18.71,33.695a402.541,402.541,0,0,1,37.747,121.266l.024.394.011.09a409.34,409.34,0,0,1,4.162,58.094l-.019,2.163.011.077-.029,2.036q-.019,1.938-.055,3.869c-.021,1.134-.053,2.271-.085,3.408-.034,1.2-.069,2.4-.116,3.59-.045,1.25-.1,2.5-.156,3.742q-.072,1.569-.157,3.137-.113,2.092-.244,4.175l-.175,2.579q-.166,2.357-.357,4.707l-.159,1.835c-.158,1.808-.32,3.607-.5,5.4l-.093.9a404.847,404.847,0,0,1-20.449,92.1c-.747,2.145-1.473,4.183-2.221,6.214l-.291.782q-1.008,2.726-2.049,5.436l-.7,1.776c-.591,1.512-1.167,2.979-1.759,4.438-.421,1.043-.853,2.078-1.286,3.114,0,0-1.059,2.56-1.287,3.1a403.949,403.949,0,0,1-24.867,49.04,2.366,2.366,0,0,1-.183.265l-.129.162-.109.178c-3.06,5.107-6.008,9.81-9.011,14.377A2.429,2.429,0,0,1,548.6,625.149Z" transform="translate(307.861 76.504)" fill="#00b7a8"/>
    <path id="Path_113" data-name="Path 113" d="M449.049,678.865A403.6,403.6,0,0,1,232.92,599.039l-.328-.325-.141-.106a410.337,410.337,0,0,1-44.7-38.96l-.164-.166-.143-.109-2.357-2.426c-1.232-1.266-2.463-2.537-3.678-3.82l-.733-.781c-3.866-4.1-7.691-8.324-11.365-12.558l-.865-.99c-1.069-1.24-2.121-2.487-3.174-3.738l-1.131-1.342q-1.6-1.916-3.172-3.856l-.906-1.115q-1.745-2.162-3.444-4.321l-.354-.453a402.668,402.668,0,0,1-65.411-121.81l-.474-1.424q-.632-1.923-1.241-3.853c-.381-1.191-.75-2.38-1.118-3.57l-.683-2.248q-.909-3.008-1.766-6.026l-.048-.164c-3.662-12.887-6.706-26.056-9.029-39.083a2.436,2.436,0,0,1,1.967-2.822,2.56,2.56,0,0,1,.431-.037,2.427,2.427,0,0,1,2.391,2c.566,3.18,1.221,6.566,2,10.352l.047.23.058.161c1.9,9.2,4.165,18.469,6.718,27.527v.087l.145.423c.566,2,1.155,3.992,1.753,5.981l.654,2.145c.37,1.205.749,2.41,1.128,3.614.4,1.249.794,2.494,1.2,3.734l.493,1.483a399.874,399.874,0,0,0,64.584,120.265l.386.493q1.678,2.133,3.371,4.231l.652.8c2.558,3.151,5.144,6.243,7.691,9.195l.228.262c5.309,6.143,10.845,12.167,16.5,17.958l.429.442a405.107,405.107,0,0,0,132.638,89.953l.185.085a399.954,399.954,0,0,0,127.218,29.645,2.431,2.431,0,0,1-.154,4.858Z" transform="translate(43.479 203.874)" fill="#00b7a8"/>
    <path id="Path_114" data-name="Path 114" d="M403.143,750.043a2.432,2.432,0,0,1-.709-4.758,418.59,418.59,0,0,0,104.2-48.32c2-1.282,3.89-2.528,5.773-3.784l.394-.26q2.63-1.757,5.238-3.566l.738-.5q2.357-1.637,4.7-3.318l1.17-.828c.868-.623,1.724-1.255,2.582-1.886l.807-.595c4.446-3.267,8.75-6.553,12.791-9.768,1.772-1.411,3.45-2.769,5.116-4.138l.264-.215q2.461-2.025,4.912-4.107l.289-.244q2.418-2.054,4.819-4.159l.2-.177c1.706-1.5,3.292-2.913,4.867-4.339l.3-.273q2.36-2.14,4.7-4.323l.264-.246c1.576-1.477,3.125-2.949,4.665-4.433l.157-.153c1.639-1.583,3.177-3.093,4.707-4.615l.177-.178q2.285-2.28,4.541-4.6l.109-.112a423.442,423.442,0,0,0,61.346-80.493A418.618,418.618,0,0,0,691.4,427.7l.185-.9c.355-1.737.694-3.493,1.028-5.253l.407-2.156c.264-1.422.516-2.855.768-4.29q.282-1.637.554-3.27.277-1.678.543-3.365.345-2.193.665-4.384l.349-2.407q.4-2.813.754-5.634l.159-1.253A423.1,423.1,0,0,0,685.457,232.86a2.431,2.431,0,1,1,4.694-1.268A427.991,427.991,0,0,1,704.873,342.91l-.013,1.756.021.161a425.589,425.589,0,0,1-3.235,50.533l-.172,1.337q-.362,2.83-.755,5.648c-.095.677-.355,2.457-.355,2.457q-.323,2.206-.67,4.409c-.177,1.143-.362,2.277-.549,3.411q-.28,1.663-.567,3.323-.374,2.164-.771,4.316-.2,1.111-.415,2.214-.5,2.654-1.036,5.287l-.194.943c-2.336,11.386-5.128,22.67-8.3,33.553l-.127.3-.034.117a424.466,424.466,0,0,1-41.255,95.436,428.606,428.606,0,0,1-48.554,66.861l-.162.182-.066.1c-5.717,6.445-11.791,12.878-18.076,19.144l-.082.084q-2.355,2.348-4.745,4.654l-.125.122c-1.581,1.528-3.193,3.058-4.813,4.575l-.153.141q-2.413,2.256-4.867,4.482l-.19.17q-2.439,2.208-4.927,4.392l-.177.156c-1.65,1.446-3.325,2.894-5.013,4.327l-.133.114q-2.483,2.107-5.025,4.2l-.132.106c-6.117,5.03-12.513,9.99-19.011,14.742l-.961.705q-.865.639-1.739,1.269l-1.388.983q-2.273,1.622-4.557,3.217l-.86.59q-2.574,1.779-5.177,3.524l-.517.342q-2.794,1.863-5.627,3.689l-.172.111c-5.386,3.466-10.781,6.776-16.038,9.839l-.3.14-.106.061a424,424,0,0,1-88.9,38.8A2.418,2.418,0,0,1,403.143,750.043Z" transform="translate(240.263 135.209)" fill="#c0394f"/>
    <path id="Path_115" data-name="Path 115" d="M470.414,662.98a441.659,441.659,0,0,1-183.08-39.589c-12.561-5.679-25.292-12.2-37.839-19.4l-.212-.122-.228-.087a2.748,2.748,0,0,1-.35-.161,447.5,447.5,0,0,1-89-67.158l-2.021-1.978q-2.856-2.81-5.669-5.679-2.205-2.246-4.363-4.522-1.42-1.487-2.825-2.986c-4.16-4.441-7.541-8.168-10.633-11.719l-.251-.362-.1-.114A443.321,443.321,0,0,1,85.056,440.84a2.435,2.435,0,0,1,.885-3.323,2.4,2.4,0,0,1,1.213-.328,2.443,2.443,0,0,1,2.108,1.213A438.752,438.752,0,0,0,148.39,518q1.379,1.47,2.765,2.926,2.157,2.261,4.342,4.5c1.853,1.883,3.712,3.755,5.6,5.6q.993.979,2,1.957a449.352,449.352,0,0,0,126.243,85.975,436.783,436.783,0,0,0,181.081,39.158q2.654,0,5.316-.032c6.206-.074,12.484-.281,18.659-.619l.166,0a2.431,2.431,0,0,1,.1,4.859c-6.26.342-12.608.553-18.868.627-1.793.021-3.574.032-5.364.032Z" transform="translate(48.499 261.073)" fill="#900048"/>
    <path id="Path_116" data-name="Path 116" d="M376.659,612.193a2.431,2.431,0,0,1-.442-4.821,442.2,442.2,0,0,0,205.989-98.539,2.432,2.432,0,0,1,3.166,3.693A447.071,447.071,0,0,1,377.113,612.15a2.276,2.276,0,0,1-.418.043Z" transform="translate(224.194 304.198)" fill="#900048"/>
    <path id="Path_117" data-name="Path 117" d="M423.812,623.676a2.432,2.432,0,0,1-.821-4.721A460.667,460.667,0,0,0,612.115,490.569a2.431,2.431,0,0,1,3.431-.215,2.436,2.436,0,0,1,.217,3.432A465.551,465.551,0,0,1,424.637,623.532,2.462,2.462,0,0,1,423.812,623.676Z" transform="translate(252.806 292.969)" fill="#ffb961"/>
    <path id="Path_118" data-name="Path 118" d="M907,371.826a2.421,2.421,0,0,1-2.362-1.874,460.235,460.235,0,0,0-187.423-273.8A466.85,466.85,0,0,0,651.93,58.634l-.233-.109-.1-.031A455.983,455.983,0,0,0,471.813,15.1l-.23-.008-.143.014c-4.994-.167-10.164-.254-15.275-.254-130.532,0-255.324,55.28-342.38,151.667a2.432,2.432,0,0,1-3.611-3.259A466.574,466.574,0,0,1,426.3,10.985l.193-.013.4-.077c9.776-.633,19.623-.945,29.342-.945A460.446,460.446,0,0,1,632.132,44.641l.138.056.448.129A467.075,467.075,0,0,1,909.37,368.836a2.434,2.434,0,0,1-2.372,2.99Z" transform="translate(63.562 1.79)" fill="#ffb961"/>
    <path id="Path_119" data-name="Path 119" d="M685.468,475.407a2.432,2.432,0,0,1-2.235-2.61c.937-12.2,1.411-24.584,1.411-36.817a482.841,482.841,0,0,0-158-356.279,2.43,2.43,0,1,1,3.267-3.6,487.71,487.71,0,0,1,159.6,359.879c0,12.336-.479,24.849-1.424,37.188a2.442,2.442,0,0,1-2.418,2.246Z" transform="translate(316.202 41.553)" fill="#900048"/>
    <path id="Path_120" data-name="Path 120" d="M665.98,104.379a2.391,2.391,0,0,1-1.962-1c-3.055-4.245-5.862-8.049-8.586-11.631l-.823-1.085q-3.223-4.216-6.511-8.364-1.089-1.376-2.189-2.745-2.688-3.358-5.425-6.685-1.952-2.369-3.93-4.711c-1.318-1.568-2.64-3.14-3.975-4.7q-3.15-3.671-6.352-7.279L624.4,54.1c-8.492-9.5-17.505-18.942-26.79-28.085a2.416,2.416,0,0,1-.039-3.4,2.47,2.47,0,0,1,1.758-.789,2.418,2.418,0,0,1,1.723.7c9.349,9.222,18.429,18.762,26.991,28.355l1.763,2q3.271,3.7,6.5,7.443,1.68,1.957,3.331,3.934l.588.7c1.409,1.678,2.737,3.256,4.046,4.848q2.726,3.307,5.394,6.648,1.15,1.434,2.29,2.871,3.273,4.131,6.472,8.316l.458.59.474.635c2.878,3.779,5.782,7.689,8.645,11.631a2.409,2.409,0,0,1-.553,3.381,2.474,2.474,0,0,1-1.465.5Z" transform="translate(359.32 9.002)" fill="#00b7a8"/>
    <path id="Path_121" data-name="Path 121" d="M649.391,63.553a2.428,2.428,0,0,1-1.888-.893c-10.523-12.9-21.7-25.545-33.219-37.6a2.416,2.416,0,0,1,.059-3.391l.119-.124a2.364,2.364,0,0,1,1.576-.57,2.412,2.412,0,0,1,1.742.744c11.73,12.267,23,25.006,33.491,37.863a2.438,2.438,0,0,1-.347,3.423A2.4,2.4,0,0,1,649.391,63.553Z" transform="translate(369.472 8.482)" fill="#c0394f"/>
    <path id="Path_122" data-name="Path 122" d="M645.982,39.6a2.38,2.38,0,0,1-1.808-.816c-6.845-7.763-13.806-15.309-20.693-22.426l-.114-.116-.374-.307c-1.518-1.557-3.095-3.151-4.676-4.737a2.415,2.415,0,0,1-.006-3.4,2.5,2.5,0,0,1,1.8-.8,2.4,2.4,0,0,1,1.716.715c8.846,8.946,17.6,18.317,26,27.852a2.447,2.447,0,0,1-1.843,4.036Z" transform="translate(371.896 0)" fill="#00b7a8"/>
    <path id="Path_123" data-name="Path 123" d="M686.21,148.932a2.409,2.409,0,0,1-2.025-1.1A605.619,605.619,0,0,0,565.775,14.051a2.417,2.417,0,0,1-.317-3.374,2.5,2.5,0,0,1,1.713-.961A2.142,2.142,0,0,1,567.4,9.7a2.418,2.418,0,0,1,1.546.561,604.667,604.667,0,0,1,79.55,80.251,2.543,2.543,0,0,1,.307.524l.17.365.254.312a615.251,615.251,0,0,1,39.039,53.466A2.4,2.4,0,0,1,688.6,147a2.474,2.474,0,0,1-2.389,1.928Z" transform="translate(339.914 1.641)" fill="#00b7a8"/>
    <path id="Path_124" data-name="Path 124" d="M702.246,217.458a2.408,2.408,0,0,1-2.148-1.31A564.063,564.063,0,0,0,629.885,110.88c-1.689-2-3.384-4-5.107-5.984-.623-.717-2.692-3.063-2.692-3.063q-2.745-3.117-5.513-6.185c-.607-.672-1.223-1.339-1.838-2l-.75-.813q-3.032-3.3-6.111-6.559c-.81-.855-1.631-1.7-2.45-2.553l-.649-.673q-2.844-2.948-5.717-5.857-1.82-1.832-3.662-3.644-2.654-2.627-5.33-5.218-2.087-2.01-4.2-3.993-2.49-2.35-5-4.673-2.3-2.119-4.621-4.207-2.4-2.164-4.826-4.3t-4.867-4.234c-11.1-9.551-22.826-18.852-34.863-27.645a2.42,2.42,0,0,1-.537-3.349,2.454,2.454,0,0,1,1.6-1,2.613,2.613,0,0,1,.384-.031,2.436,2.436,0,0,1,1.42.463c11.145,8.14,22.011,16.7,32.3,25.429l.244.191.153.1c.437.371.86.744,1.286,1.117l1.163,1.014q2.485,2.14,4.956,4.311,2.43,2.138,4.826,4.3,2.355,2.123,4.7,4.278,2.521,2.321,5.005,4.676,2.145,2.025,4.273,4.065,2.69,2.591,5.327,5.214l.219.215c1.178,1.167,2.357,2.332,3.526,3.511,1.927,1.939,3.828,3.9,5.722,5.864l.8.831q1.188,1.229,2.369,2.467,3.083,3.252,6.1,6.551s1.536,1.642,1.861,2l.818.919q2.769,3.051,5.479,6.146l.659.749c.715.811,1.429,1.621,2.14,2.439q2.545,2.936,5.042,5.907s1.621,1.89,1.951,2.285c.055.079.108.156.166.23a569.416,569.416,0,0,1,68.779,103.761,2.444,2.444,0,0,1-2.171,3.532Z" transform="translate(319.153 4.789)" fill="#00b7a8"/>
    <path id="Path_125" data-name="Path 125" d="M721.279,267.7a2.406,2.406,0,0,1-2.224-1.477c-3.739-8.864-7.654-17.513-11.631-25.707C661.245,145.4,589.287,66.65,499.327,12.771a2.436,2.436,0,0,1-.847-3.313,2.368,2.368,0,0,1,2.063-1.207,2.357,2.357,0,0,1,1.216.337C592.571,62.954,665.2,142.421,711.8,238.395c4,8.248,7.953,16.977,11.733,25.943a2.446,2.446,0,0,1-2.253,3.365Z" transform="translate(299.395 0.759)" fill="#096386"/>
    <path id="Path_126" data-name="Path 126" d="M661.361,259.4a2.421,2.421,0,0,1-2.3-1.719,518.836,518.836,0,0,0-60.745-131.8,2.433,2.433,0,0,1,2.038-3.749,2.432,2.432,0,0,1,2.05,1.117,523.361,523.361,0,0,1,61.3,133.034,2.407,2.407,0,0,1-1.634,3.008A2.462,2.462,0,0,1,661.361,259.4Z" transform="translate(359.946 69.873)" fill="#c0394f"/>
    <path id="Path_127" data-name="Path 127" d="M522.852,673.509a2.442,2.442,0,0,1-1.986-1.022,2.433,2.433,0,0,1,.57-3.391,540.454,540.454,0,0,0,77.476-67.107l.132-.14.247-.336c9.947-10.475,19.546-21.4,28.559-32.526l1.347-1.7c2.431-3.024,4.65-5.843,6.786-8.615a546.884,546.884,0,0,0,39.667-59.432c.061-.093.133-.175.2-.26l.154-.193.141-.238a545.106,545.106,0,0,0,36.886-78.18,2.426,2.426,0,0,1,2.255-1.559,2.393,2.393,0,0,1,.831.149,2.468,2.468,0,0,1,1.419,1.284,2.42,2.42,0,0,1,.061,1.853,543.752,543.752,0,0,1-77.755,139.535c-2.3,3-4.654,5.95-6.863,8.713,0,0-1.114,1.412-1.345,1.7A542,542,0,0,1,524.258,673.058,2.415,2.415,0,0,1,522.852,673.509Z" transform="translate(312.908 249.922)" fill="#1b175b"/>
    <path id="Path_128" data-name="Path 128" d="M526.887,601.109a2.464,2.464,0,0,1-1.091-.254,2.39,2.39,0,0,1-.908-.787,2.432,2.432,0,0,1,.6-3.384c6.749-4.7,13.556-9.694,20.807-15.257q4.081-3.129,8.086-6.338l1.081-.858c.776-.615,1.554-1.231,2.323-1.854l.585-.474a2.363,2.363,0,0,1,1.512-.538,2.408,2.408,0,0,1,1.859.872,2.41,2.41,0,0,1-.323,3.424c-10.9,8.865-22.059,17.28-33.152,25.011A2.417,2.417,0,0,1,526.887,601.109Z" transform="translate(315.358 342.502)" fill="#c0394f"/>
    <path id="Path_129" data-name="Path 129" d="M625.655,547.87a2.391,2.391,0,0,1-1.464-.495,2.436,2.436,0,0,1-.466-3.41C634.343,530,644.529,515.282,654,500.208a2.412,2.412,0,0,1,3.307-.77,2.468,2.468,0,0,1,1.141,1.546,2.393,2.393,0,0,1-.307,1.829c-9.477,15.076-19.755,29.912-30.545,44.1A2.418,2.418,0,0,1,625.655,547.87Z" transform="translate(375.304 298.634)" fill="#f3826f"/>
    <path id="Path_130" data-name="Path 130" d="M623.641,604.235a2.394,2.394,0,0,1-1.69-.691,2.426,2.426,0,0,1-.08-3.426c10.523-10.888,20.848-22.344,30.685-34.045a2.4,2.4,0,0,1,1.848-.861,2.369,2.369,0,0,1,1.531.553,2.418,2.418,0,0,1,.323,3.421c-9.988,11.893-20.38,23.436-30.884,34.312a2.425,2.425,0,0,1-1.7.738Z" transform="translate(374.073 338.768)" fill="#f3826f"/>
    <path id="Path_131" data-name="Path 131" d="M553.741,629.718a2.241,2.241,0,0,1-.272-.016,2.393,2.393,0,0,1-1.625-.9,2.429,2.429,0,0,1,.358-3.4l2.065-1.661c1.212-.974,2.423-1.948,3.622-2.937.815-.672,1.623-1.356,2.431-2.039l1.346-1.136c2.643-2.225,5.288-4.449,7.895-6.722l1.118-.988c14.251-12.489,28.058-25.815,41.04-39.613,3.223-3.427,6.607-7.126,10.343-11.309q2.307-2.591,4.583-5.2l.673-.771c.791-.906,1.584-1.813,2.367-2.725,2.865-3.344,5.489-6.469,8.022-9.556l1-1.226c3.051-3.741,5.8-7.18,8.4-10.514l.19-.22c4.081-5.234,8-10.437,11.693-15.511a2.432,2.432,0,1,1,3.932,2.862c-6.386,8.78-13.275,17.692-20.473,26.489l-.966,1.186c-2.761,3.355-5.5,6.617-8.136,9.689-.657.768-1.321,1.527-1.983,2.287l-.983,1.126q-2.364,2.712-4.766,5.4a588.977,588.977,0,0,1-51.674,51.206l-1.213,1.073c-2.613,2.272-5.258,4.506-7.908,6.731l-1.327,1.12c-.839.709-1.678,1.419-2.524,2.118-1.3,1.069-2.61,2.124-3.922,3.18l-1.788,1.438a2.42,2.42,0,0,1-1.518.54Z" transform="translate(331.658 306.637)" fill="#900048"/>
    <path id="Path_132" data-name="Path 132" d="M477.821,716.865a2.361,2.361,0,0,1-.725-.112,2.459,2.459,0,0,1-.426-4.494A523.385,523.385,0,0,0,732.282,404.59c.035-.08.13-.328.13-.328l.026-.088c2.057-6.677,4.011-13.523,5.807-20.351a2.4,2.4,0,0,1,2.92-1.723,2.451,2.451,0,0,1,1.525,1.123,2.394,2.394,0,0,1,.255,1.84c-1.957,7.45-4.072,14.83-6.28,21.932l-.164.368-.053.167A528.436,528.436,0,0,1,478.943,716.589,2.413,2.413,0,0,1,477.821,716.865Z" transform="translate(285.585 227.595)" fill="#00b7a8"/>
    <path id="Path_133" data-name="Path 133" d="M403.813,617.939a2.406,2.406,0,0,1-2.325-1.782l-.011-.04a2.418,2.418,0,0,1,1.711-2.921,483.239,483.239,0,0,0,105.665-42.359c11.272-6.137,22.413-12.784,33.111-19.757a2.431,2.431,0,1,1,2.655,4.073c-10.811,7.046-22.062,13.76-33.438,19.954a487.791,487.791,0,0,1-106.742,42.749A2.493,2.493,0,0,1,403.813,617.939Z" transform="translate(240.681 329.952)" fill="#00b7a8"/>
    <path id="Path_134" data-name="Path 134" d="M106.606,578.442a2.414,2.414,0,0,1-1.552-.567c-6.614-5.577-13.1-11.307-19.279-17.031a2.436,2.436,0,0,1-.132-3.437,2.435,2.435,0,0,1,3.437-.13c5.762,5.337,11.884,10.758,18.195,16.112l.249.194.149.1.538.455a2.415,2.415,0,0,1,.3,3.375,2.47,2.47,0,0,1-1.689.921A1.956,1.956,0,0,1,106.606,578.442Z" transform="translate(48.661 333.559)" fill="#c0394f"/>
    <path id="Path_135" data-name="Path 135" d="M72,619.228a2.408,2.408,0,0,1-1.663-.662,645.783,645.783,0,0,1-59.553-64.841,2.422,2.422,0,0,1-.511-1.782,2.432,2.432,0,0,1,4.31-1.257c11.57,14.47,23.886,28.57,36.608,41.914.058.074.225.276.225.276l.059.063c6.956,7.278,14.433,14.709,22.222,22.087a2.417,2.417,0,0,1,.106,3.392,2.469,2.469,0,0,1-1.731.81Z" transform="translate(3.303 329.404)" fill="#f0eec8"/>
    <path id="Path_136" data-name="Path 136" d="M36.464,600.621a2.433,2.433,0,0,1-1.7-.744c-8.931-9.322-17.738-19.08-26.178-29a2.424,2.424,0,0,1,3.691-3.143c8.328,9.778,17.08,19.458,26.006,28.774a2.448,2.448,0,0,1-1.779,4.115Z" transform="translate(1.941 339.782)" fill="#1b175b"/>
    <path id="Path_137" data-name="Path 137" d="M85.256,617.313a2.4,2.4,0,0,1-1.662-.665c-4.721-4.5-8.925-8.626-12.852-12.614l-.148-.209-.108-.137-.124-.125A625.89,625.89,0,0,1,7.59,528.751,2.456,2.456,0,0,1,9.6,524.9a2.388,2.388,0,0,1,1.965,1.009,620.844,620.844,0,0,0,75.408,87.2,2.413,2.413,0,0,1,.087,3.391,2.463,2.463,0,0,1-1.732.8Z" transform="translate(1.412 314.306)" fill="#1b175b"/>
    <path id="Path_138" data-name="Path 138" d="M155.174,647.019a2.422,2.422,0,0,1-1.469-.5c-7.774-5.97-15.379-12.109-22.607-18.251A586.271,586.271,0,0,1,18.423,500.328a2.408,2.408,0,0,1,.731-3.346l.141-.09a2.41,2.41,0,0,1,3.321.717A583.239,583.239,0,0,0,156.7,642.626a2.419,2.419,0,0,1,.458,3.36,2.427,2.427,0,0,1-1.981,1.033Z" transform="translate(8.024 297.075)" fill="#1b175b"/>
    <path id="Path_139" data-name="Path 139" d="M99.518,588.693a2.411,2.411,0,0,1-1.8-.8c-5.978-6.566-12.058-13.58-18.069-20.846l-.186-.222c-1.763-2.132-3.5-4.3-5.24-6.479,0,0-2.232-2.78-2.648-3.307-2.158-2.73-4.274-5.481-6.376-8.242l-.974-1.284A562.916,562.916,0,0,1,8.98,458.289a2.417,2.417,0,0,1-.124-1.85,2.391,2.391,0,0,1,1.229-1.39,2.467,2.467,0,0,1,1.1-.27,2.4,2.4,0,0,1,2.161,1.339,562.825,562.825,0,0,0,54.766,88.488l.94,1.24q3.136,4.126,6.346,8.2c.445.564,2.1,2.622,2.1,2.622,1.895,2.372,3.794,4.743,5.73,7.09,5.966,7.221,12.05,14.24,18.084,20.867a2.431,2.431,0,0,1-1.8,4.069Z" transform="translate(2.375 271.749)" fill="#096386"/>
    <path id="Path_140" data-name="Path 140" d="M177.572,648.935a2.409,2.409,0,0,1-1.572-.578c-8.433-7.151-16.773-14.684-24.791-22.39a526.615,526.615,0,0,1-91.327-116.8l-.161-.281-.215-.241a2.706,2.706,0,0,1-.3-.4,523.28,523.28,0,0,1-49.174-116.5,2.414,2.414,0,0,1,1.676-2.989,2.591,2.591,0,0,1,.7-.1,2.423,2.423,0,0,1,2.316,1.745A522.561,522.561,0,0,0,154.583,622.461c7.944,7.639,16.21,15.1,24.566,22.186a2.432,2.432,0,0,1-1.576,4.287Z" transform="translate(3.111 231.62)" fill="#f0eec8"/>
    <path id="Path_141" data-name="Path 141" d="M9.508,348.084a2.674,2.674,0,0,1-2.195-1.194,2.433,2.433,0,0,1-.278-1.838,525.25,525.25,0,0,1,30.651-88.078l.19-.341.037-.08A528.993,528.993,0,0,1,257.837,15.172a2.391,2.391,0,0,1,1.2-.32,2.433,2.433,0,0,1,1.207,4.547A524,524,0,0,0,39.974,263.9l-.337.77c-.582,1.327-1.167,2.655-1.734,3.987q-1.48,3.464-2.9,6.951l-.882,2.179a520.594,520.594,0,0,0-22.278,68.466,2.4,2.4,0,0,1-2.332,1.829Z" transform="translate(1.304 4.765)" fill="#096386"/>
    <path id="Path_142" data-name="Path 142" d="M10.985,200.626a2.4,2.4,0,0,1-.865-.162A2.414,2.414,0,0,1,8.7,197.31a550.84,550.84,0,0,1,27.052-58.315,2.432,2.432,0,0,1,2.147-1.282,2.382,2.382,0,0,1,1.142.291,2.432,2.432,0,0,1,.993,3.294,546.934,546.934,0,0,0-26.814,57.8,2.4,2.4,0,0,1-2.24,1.527Z" transform="translate(2.259 79.327)" fill="#c0394f"/>
    <path id="Path_143" data-name="Path 143" d="M9.581,154.985a2.391,2.391,0,0,1-1.167-.3,2.526,2.526,0,0,1-1.273-1.528,2.434,2.434,0,0,1,.227-1.841,586.723,586.723,0,0,1,57.2-83.045,2.432,2.432,0,0,1,3.754,3.093,577.8,577.8,0,0,0-56.646,82.4,2.418,2.418,0,0,1-2.1,1.221Z" transform="translate(1.359 36.644)" fill="#c0394f"/>
    <path id="Path_144" data-name="Path 144" d="M12.05,77.452a2.391,2.391,0,0,1-1.485-.514,2.412,2.412,0,0,1-.407-3.411C15.638,66.655,21.145,60.019,26.525,53.8l.186-.233.08-.119,1.1-1.244c1.141-1.31,2.291-2.6,3.444-3.9l.82-.922c1.811-2.038,3.622-4.073,5.459-6.087.967-1.062,1.949-2.116,2.928-3.17l.72-.776q3.182-3.432,6.4-6.821c.747-.784,1.5-1.56,2.253-2.338l.676-.7q3.693-3.818,7.435-7.575l2.155-2.136c2.921-2.9,5.788-5.687,8.52-8.3l1.345-1.276a2.155,2.155,0,0,1,1.494-.6,2.205,2.205,0,0,1,1.58.686l.347.37a2.2,2.2,0,0,1-.092,3.085l-1.265,1.2c-2.716,2.592-5.515,5.316-8.56,8.335L61.5,23.326q-3.765,3.763-7.464,7.6s-2.209,2.282-2.83,2.931c-2.166,2.267-4.3,4.564-6.437,6.863l-1.081,1.163c-.821.885-1.641,1.769-2.454,2.663-1.793,1.965-3.562,3.955-5.333,5.945l-1.2,1.35c-1.044,1.173-2.089,2.348-3.122,3.535-5.929,6.8-11.867,13.925-17.642,21.164a2.4,2.4,0,0,1-1.886.909Z" transform="translate(2.924 0.374)" fill="#096386"/>
    <path id="Path_145" data-name="Path 145" d="M12.426,43.47a2.381,2.381,0,0,1-1.557-.572,2.414,2.414,0,0,1-.3-3.445c8.258-9.582,16.94-19.085,25.8-28.246a2.4,2.4,0,0,1,1.7-.734h0a2.449,2.449,0,0,1,1.8,4.123C31.1,23.654,22.485,33.088,14.254,42.633a2.416,2.416,0,0,1-1.829.837Z" transform="translate(3.136 2.108)" fill="#1b175b"/>
    <path id="Path_146" data-name="Path 146" d="M60.12,51.238a2.431,2.431,0,0,1-1.715-4.155C71.739,33.806,86.066,20.866,100.986,8.619a2.2,2.2,0,0,1,1.392-.5,2.047,2.047,0,0,1,.222.01,2.218,2.218,0,0,1,1.483.8l.317.394a2.2,2.2,0,0,1-.313,3.072C95.941,19.1,88.105,25.868,80.8,32.532l-.3.233-.064.061c-6.534,5.965-12.789,11.921-18.595,17.7A2.424,2.424,0,0,1,60.12,51.238Z" transform="translate(32.089 0.681)" fill="#ffb961"/>
    <path id="Path_147" data-name="Path 147" d="M48.579,130.864a2.43,2.43,0,0,1-1.912-3.926,572.661,572.661,0,0,1,65.877-71.053c5.709-5.2,11.854-10.548,18.261-15.9l.178-.149.1-.106,1.107-.9c3.762-3.122,6.906-5.682,9.892-8.05l1.727-1.347q3.941-3.1,7.933-6.129,2.234-1.7,4.478-3.37c1.631-1.213,3.275-2.409,4.919-3.6q2.931-2.136,5.883-4.221a2.187,2.187,0,0,1,1.266-.4,2.188,2.188,0,0,1,1.8.942l.275.4a2.2,2.2,0,0,1-.535,3.035q-2.931,2.075-5.839,4.188l-.77.561c-1.369,1-2.738,1.993-4.1,3-1.486,1.1-2.968,2.226-4.448,3.349q-3.938,2.994-7.832,6.05l-1.743,1.359c-3.042,2.415-6.244,5.021-9.789,7.965-6.779,5.629-13.336,11.322-19.485,16.922A567.714,567.714,0,0,0,50.5,129.927,2.424,2.424,0,0,1,48.579,130.864Z" transform="translate(25.086 2.857)" fill="#f0eec8"/>
    <path id="Path_148" data-name="Path 148" d="M70.04,186.621a2.43,2.43,0,0,1-1.978-3.837l.914-1.287a503.085,503.085,0,0,1,149.4-138.846,509.535,509.535,0,0,1,50.731-26.93l.209-.1c.09-.05.178-.1.267-.159.517-.238,4.663-2.094,4.663-2.094.693-.309,2.875-1.284,5.647-2.486a2.385,2.385,0,0,1,1.84-.026,2.4,2.4,0,0,1,1.311,1.289,2.45,2.45,0,0,1-1.258,3.215c-2.582,1.12-4.637,2.036-5.626,2.478l-1.846.831A504.132,504.132,0,0,0,220.9,46.809,498.272,498.272,0,0,0,72.932,184.324l-.9,1.269A2.437,2.437,0,0,1,70.04,186.621Z" transform="translate(38.111 2.233)" fill="#096386"/>
    <path id="Path_149" data-name="Path 149" d="M198.639,40.542a2.442,2.442,0,0,1-2.206-1.4,2.43,2.43,0,0,1,1.171-3.231A488.2,488.2,0,0,1,268.42,9.267a2.386,2.386,0,0,1,2.966,1.658,2.426,2.426,0,0,1-1.639,3,485,485,0,0,0-70.082,26.391A2.415,2.415,0,0,1,198.639,40.542Z" transform="translate(116.15 1.318)" fill="#096386"/>
    <path id="Path_150" data-name="Path 150" d="M567.973,99.961a2.412,2.412,0,0,1-1.539-.551A477.7,477.7,0,0,0,447.407,27.915l-.214-.088-.055-.014c-3.18-1.329-6.555-2.692-10.262-4.143l-1.3-.511c-1.332-.519-2.72-1.044-4-1.523a2.45,2.45,0,0,1-.169-4.5,2.349,2.349,0,0,1,1-.219,2.388,2.388,0,0,1,.842.153c1.231.463,2.611.987,4.062,1.547l1.379.54a482.529,482.529,0,0,1,130.834,76.5,2.432,2.432,0,0,1-1.546,4.311Z" transform="translate(258.036 6.017)" fill="#f0eec8"/>
    <path id="Path_151" data-name="Path 151" d="M680.284,222.565a2.444,2.444,0,0,1-2.11-1.213A497.65,497.65,0,0,0,535.5,64.671,507.894,507.894,0,0,0,459.7,19.9a2.44,2.44,0,0,1-1.178-3.175l.021-.042a2.45,2.45,0,0,1,1.382-1.266,2.428,2.428,0,0,1,1.874.093,512.506,512.506,0,0,1,76.521,45.206,502.449,502.449,0,0,1,144.065,158.2,2.436,2.436,0,0,1-.889,3.323A2.39,2.39,0,0,1,680.284,222.565Z" transform="translate(275.223 5.02)" fill="#1b175b"/>
    <path id="Path_152" data-name="Path 152" d="M582.218,92.96a2.412,2.412,0,0,1-1.694-.689q-1.241-1.208-2.492-2.41c-9.887-9.5-20.338-18.794-31.064-27.609l-.161-.133-.138-.087c-13.324-10.9-27.333-21.256-41.657-30.783a2.441,2.441,0,0,1-.693-3.346A2.482,2.482,0,0,1,505.9,26.8a2.44,2.44,0,0,1,1.841.358,531.031,531.031,0,0,1,73.661,59.2q1.263,1.212,2.512,2.431a2.43,2.43,0,0,1-1.7,4.173Z" transform="translate(302.905 11.984)" fill="#00b7a8"/>
    <path id="Path_153" data-name="Path 153" d="M81.549,351.062A2.4,2.4,0,0,1,81,351a2.435,2.435,0,0,1-1.819-2.921A406.384,406.384,0,0,1,312.143,68.693a2.2,2.2,0,0,1,.879-.182,2.163,2.163,0,0,1,.811.156,2.2,2.2,0,0,1,1.205,1.183l.19.452a2.2,2.2,0,0,1-1.144,2.854A401.488,401.488,0,0,0,83.914,349.182,2.422,2.422,0,0,1,81.549,351.062Z" transform="translate(45.091 37.33)" fill="#00b7a8"/>
    <path id="Path_154" data-name="Path 154" d="M539.239,123.807a2.409,2.409,0,0,1-1.385-.437,399.784,399.784,0,0,0-184.235-69.33,2.2,2.2,0,0,1-1.936-2.394l.048-.471a2.195,2.195,0,0,1,2.182-1.983c.08,0,.161,0,.241.013a404.634,404.634,0,0,1,186.482,70.177,2.431,2.431,0,0,1-1.4,4.425Z" transform="translate(210.501 25.605)" fill="#00b7a8"/>
    <path id="Path_155" data-name="Path 155" d="M207.061,85.546a2.432,2.432,0,0,1-1.1-4.6A419.927,419.927,0,0,1,397.422,34.971c13.919,0,28.016.7,41.9,2.083a2.19,2.19,0,0,1,1.96,2.42l-.053.48a2.18,2.18,0,0,1-2.171,1.951,2.09,2.09,0,0,1-.222-.011c-13.721-1.364-27.651-2.057-41.4-2.057A415.148,415.148,0,0,0,208.153,85.282,2.387,2.387,0,0,1,207.061,85.546Z" transform="translate(121.26 16.975)" fill="#c0394f"/>
    <path id="Path_156" data-name="Path 156" d="M688.009,301.782a2.421,2.421,0,0,1-2.255-1.522A421.943,421.943,0,0,0,396.02,49.172c-6.691-1.642-13.546-3.143-20.378-4.462a2.2,2.2,0,0,1-1.74-2.54l.084-.471a2.2,2.2,0,0,1,.921-1.409,2.169,2.169,0,0,1,1.234-.384,2.251,2.251,0,0,1,.415.04c5.872,1.133,11.738,2.391,17.433,3.742l.241.048q.152.022.3.039a426.456,426.456,0,0,1,295.73,254.663,2.437,2.437,0,0,1-2.253,3.344Z" transform="translate(223.97 19.969)" fill="#c0394f"/>
    <path id="Path_157" data-name="Path 157" d="M164.811,102.073a2.473,2.473,0,0,1-.5-.051,2.43,2.43,0,0,1-.927-4.353A442.483,442.483,0,0,1,282.5,36.862a2.152,2.152,0,0,1,.694-.112,2.192,2.192,0,0,1,2.086,1.523l.145.453a2.2,2.2,0,0,1-1.393,2.748,437.709,437.709,0,0,0-117.8,60.139,2.4,2.4,0,0,1-1.416.46Z" transform="translate(95.621 18.055)" fill="#f0eec8"/>
    <path id="Path_158" data-name="Path 158" d="M44.554,292.1a2.425,2.425,0,0,1-2.4-2.958A465.373,465.373,0,0,1,99.969,148.214a2.432,2.432,0,0,1,4.139,2.553A460.517,460.517,0,0,0,46.895,290.224a2.425,2.425,0,0,1-2.341,1.875Z" transform="translate(22.625 84.999)" fill="#f3826f"/>
    <path id="Path_159" data-name="Path 159" d="M73.264,483.958a2.431,2.431,0,0,1-2.246-1.5,470.759,470.759,0,0,1-36.16-180.588c0-1.07.01-2.139.022-3.209a2.425,2.425,0,0,1,.733-1.7,2.4,2.4,0,0,1,1.679-.678,2.433,2.433,0,0,1,2.449,2.439q-.017,1.572-.019,3.148A465.9,465.9,0,0,0,75.5,480.588a2.435,2.435,0,0,1-2.24,3.37Z" transform="translate(18.233 175.563)" fill="#f0eec8"/>
    <path id="Path_160" data-name="Path 160" d="M123.222,518.249a2.43,2.43,0,0,1-1.647-.874,463.086,463.086,0,0,1-55.5-85.216,2.431,2.431,0,1,1,4.343-2.187,458.276,458.276,0,0,0,54.918,84.313,2.442,2.442,0,0,1-1.891,3.975A2.166,2.166,0,0,1,123.222,518.249Z" transform="translate(37.021 255.88)" fill="#900048"/>
    <path id="Path_161" data-name="Path 161" d="M375.693,599.06a468.8,468.8,0,0,1-131.237-18.778,2.371,2.371,0,0,1-1.6-2.961,2.409,2.409,0,0,1,2.992-1.654,463.558,463.558,0,0,0,129.695,18.54h.01a457.894,457.894,0,0,0,87.543-8.444,2.457,2.457,0,0,1,.468-.045,2.419,2.419,0,0,1,2.354,1.922,2.46,2.46,0,0,1-.345,1.875,2.4,2.4,0,0,1-1.544,1.03A462.041,462.041,0,0,1,375.7,599.06Z" transform="translate(144.401 345.055)" fill="#00b7a8"/>
    <path id="Path_162" data-name="Path 162" d="M157.144,706.118a2.371,2.371,0,0,1-1.7-.709,499.087,499.087,0,0,1-61.36-75.544l-.109-.164c-1.173-1.779-2.394-3.627-3.593-5.494-1.988-3.079-4.012-6.3-6.19-9.852l-.418-.675a502.677,502.677,0,0,1-67.01-180.315,511.779,511.779,0,0,1-7-84.045A503.329,503.329,0,0,1,26.726,219.778a2.432,2.432,0,0,1,2.344-1.806,2.473,2.473,0,0,1,.63.082,2.43,2.43,0,0,1,1.724,2.978,498.485,498.485,0,0,0-16.8,128.29,506.8,506.8,0,0,0,6.932,83.243,499.606,499.606,0,0,0,51.751,153.02l.084.159.249.357c4.525,8.464,9.313,16.869,14.271,25.026l.458.744c1.713,2.809,3.591,5.8,6.084,9.678,3.718,5.762,7.6,11.51,11.528,17.092l.182.308.055.077a494.7,494.7,0,0,0,52.653,62.948,2.442,2.442,0,0,1-1.731,4.144Z" transform="translate(3.006 128.035)" fill="#f3826f"/>
    <path id="Path_163" data-name="Path 163" d="M228.242,605.877a2.406,2.406,0,0,1-.964-.2,505.309,505.309,0,0,1-72.366-38.821,2.44,2.44,0,0,1,1.334-4.475,2.4,2.4,0,0,1,1.3.384,499.918,499.918,0,0,0,71.7,38.4,2.418,2.418,0,0,1,1.26,3.143,2.5,2.5,0,0,1-1.366,1.393,2.393,2.393,0,0,1-.9.174Z" transform="translate(90.421 337.049)" fill="#c0394f"/>
    <path id="Path_164" data-name="Path 164" d="M541.023,559.064a2.322,2.322,0,0,1-1.4-.463,2.437,2.437,0,0,1-.255-3.752,505.5,505.5,0,0,0,62.819-71.791,2.427,2.427,0,0,1,3.37-.562,2.432,2.432,0,0,1,.572,3.408A510.4,510.4,0,0,1,542.691,558.4,2.415,2.415,0,0,1,541.023,559.064Z" transform="translate(323.949 288.299)" fill="#1b175b"/>
    <path id="Path_165" data-name="Path 165" d="M602.635,475.225a2.206,2.206,0,0,1-1.056-.272l-.421-.231a2.2,2.2,0,0,1-.874-2.958,499.654,499.654,0,0,0,28.329-62.676A2.445,2.445,0,0,1,630.9,407.5a2.378,2.378,0,0,1,.842.153,2.435,2.435,0,0,1,1.437,3.127,504.76,504.76,0,0,1-28.609,63.29,2.188,2.188,0,0,1-1.93,1.155Z" transform="translate(361.221 243.056)" fill="#1b175b"/>
    <path id="Path_166" data-name="Path 166" d="M528.445,70.781a2.165,2.165,0,0,1-.942-.215A439.216,439.216,0,0,0,376.333,29.044c-.278-.024-2.9-.228-2.9-.228-11.822-.963-23.828-1.449-35.7-1.449-10.114,0-20.362.357-30.462,1.057l-.174.006a2.418,2.418,0,0,1-2.394-2.214,2.449,2.449,0,0,1,.574-1.811,2.385,2.385,0,0,1,1.66-.832c10.215-.709,20.576-1.069,30.8-1.069,12.01,0,24.15.493,36.083,1.465,0,0,2.61.2,2.941.231,52.521,4.663,106.816,19.554,152.885,41.928a2.209,2.209,0,0,1,1.117,1.261,2.177,2.177,0,0,1-.108,1.676l-.244.495a2.175,2.175,0,0,1-1.967,1.22Z" transform="translate(181.995 9.409)" fill="#f0eec8"/>
    <path id="Path_167" data-name="Path 167" d="M633.84,539.827a2.439,2.439,0,0,1-.652-.09,2.432,2.432,0,0,1-1.694-3,437.9,437.9,0,0,0,12.657-173.272l-.027-.215-.04-.156a445.253,445.253,0,0,0-67.1-184.105,438.711,438.711,0,0,0-56-69.951,2.2,2.2,0,0,1,0-3.079l.357-.36a2.194,2.194,0,0,1,3.113.01,443.8,443.8,0,0,1,56.61,70.743,447.515,447.515,0,0,1,56.959,130.09l.058.219.087.209c.064.154.109.247.141.35a447.62,447.62,0,0,1,14.214,111.6,443.387,443.387,0,0,1-16.35,119.226A2.435,2.435,0,0,1,633.84,539.827Z" transform="translate(312.872 59.451)" fill="#00b7a8"/>
    <path id="Path_168" data-name="Path 168" d="M346.149,484.985a224.306,224.306,0,0,1-53.932-6.6,2.431,2.431,0,1,1,1.165-4.719,218.9,218.9,0,0,0,88.227,3.561l.315-.066.122-.037a220.645,220.645,0,0,0,128.583-71.572l.2-.228c.958-1.086,1.922-2.232,2.884-3.379l.889-1.056c.464-.553.929-1.106,1.385-1.666.525-.644,1.043-1.3,1.56-1.951l.415-.524c1.035-1.311,2.066-2.622,3.069-3.953l1.025-1.374c1.313-1.769,2.606-3.55,3.863-5.354l.233-.336A218.6,218.6,0,0,0,538.2,366.222a2.427,2.427,0,0,1,3.243-.995,2.482,2.482,0,0,1,1.26,1.48,2.452,2.452,0,0,1-.194,1.882,224.942,224.942,0,0,1-12.368,19.928l-.241.346c-1.277,1.829-2.6,3.657-3.945,5.465l-1.038,1.393q-1.547,2.044-3.151,4.056l-.188.238c-.6.76-1.2,1.52-1.811,2.271-.591.723-1.2,1.443-1.8,2.161l-.236.28c-1.078,1.289-2.155,2.568-3.26,3.826l-.223.251a223.992,223.992,0,0,1-168.094,76.182Z" transform="translate(173.297 217.237)" fill="#096386"/>
    <path id="Path_169" data-name="Path 169" d="M49.693,595.021a2.413,2.413,0,0,1-2.288-1.649A485.27,485.27,0,0,1,22.9,463.7l-.011-.225-.037-.215c-.053-1.085-.088-2.173-.124-3.262l-.172-4.819c-.188-5.958-.276-10.84-.276-15.359A487.567,487.567,0,0,1,191.68,70.783a2.394,2.394,0,0,1,1.58-.587,2.431,2.431,0,0,1,1.586,4.276,482.69,482.69,0,0,0-167.7,365.345c0,2.913.053,5.847.108,8.782l.006.185c.037,2.148.095,4.244.161,6.341l.092,2.479A480.075,480.075,0,0,0,52,591.839a2.415,2.415,0,0,1-1.5,3.039A2.448,2.448,0,0,1,49.693,595.021Z" transform="translate(10.602 38.352)" fill="#096386"/>
    <path id="Path_170" data-name="Path 170" d="M310.388,653.706a2.44,2.44,0,0,1-.828-.146c-94.38-34.235-174.827-96.143-232.641-179.029a2.42,2.42,0,0,1,.622-3.387l.14-.1a2.351,2.351,0,0,1,1.231-.331,2.426,2.426,0,0,1,1.991,1.036C138.137,553.808,217.779,615.1,311.217,648.988a2.431,2.431,0,0,1,1.457,3.114A2.44,2.44,0,0,1,310.388,653.706Z" transform="translate(43.495 281.419)" fill="#c0394f"/>
    <path id="Path_171" data-name="Path 171" d="M104.76,614.631a2.393,2.393,0,0,1-1.6-.6,603.714,603.714,0,0,1-71.272-74.061,2.406,2.406,0,0,1,.37-3.4,2.454,2.454,0,0,1,1.572-.585,2.4,2.4,0,0,1,1.877.893,598.788,598.788,0,0,0,70.655,73.494,2.431,2.431,0,0,1-1.6,4.261Z" transform="translate(16.105 321.029)" fill="#ffb961"/>
    <path id="Path_172" data-name="Path 172" d="M329.831,537.257a2.386,2.386,0,0,1-2.388-2.38,2.418,2.418,0,0,1,2.324-2.475l.551-.021A239.742,239.742,0,0,0,558.668,338.716c.109-.574.427-2.351.427-2.351.159-.86.315-1.7.458-2.54q.328-1.926.623-3.865l.162-1.049q.33-2.2.622-4.429l.068-.517q.3-2.331.554-4.676l.04-.362q.265-2.444.479-4.9a2.457,2.457,0,0,1,2.434-2.219c.071,0,.14,0,.21.01a2.434,2.434,0,0,1,2.2,2.634l-.219,2.23.006.2c-.05.5-.334,3.066-.334,3.066-.164,1.509-.346,3.026-.54,4.539l-.1.8q-.282,2.143-.6,4.268l-.225,1.43c-.186,1.2-.373,2.394-.578,3.587-.169.993-.35,1.977-.53,2.962l-.37,2.018a244.493,244.493,0,0,1-233.567,197.7Z" transform="translate(195.797 184.983)" fill="#00b7a8"/>
    <path id="Path_173" data-name="Path 173" d="M11.047,104.414a2.4,2.4,0,0,1-1.39-.447A2.488,2.488,0,0,1,8.6,102.341a2.433,2.433,0,0,1,.429-1.806c2.863-3.943,5.767-7.853,8.637-11.621l.935-1.229q3.211-4.194,6.474-8.319c.762-.964,1.527-1.919,2.293-2.875q2.675-3.338,5.391-6.643c1.311-1.6,2.639-3.174,3.964-4.752l.675-.8q1.656-1.969,3.328-3.927,3.218-3.758,6.5-7.446l1.763-2c8.6-9.633,17.732-19.226,27.153-28.512a2.176,2.176,0,0,1,1.536-.63,2.22,2.22,0,0,1,1.573.662l.365.378a2.2,2.2,0,0,1-.039,3.084c-9.35,9.2-18.413,18.7-26.941,28.233L50.8,56.22q-3.2,3.6-6.347,7.27-2.005,2.343-3.979,4.7-1.972,2.34-3.929,4.7-2.736,3.329-5.428,6.691-1.094,1.364-2.184,2.738-3.288,4.158-6.511,8.365L21.6,91.778c-2.719,3.579-5.526,7.382-8.587,11.632A2.39,2.39,0,0,1,11.047,104.414Z" transform="translate(2.28 8.968)" fill="#900048"/>
    <path id="Path_174" data-name="Path 174" d="M37.67,547.87a2.419,2.419,0,0,1-1.939-.959c-10.79-14.186-21.068-29.022-30.545-44.1a2.413,2.413,0,0,1,.773-3.336,2.474,2.474,0,0,1,1.322-.4,2.4,2.4,0,0,1,2.046,1.128C18.8,515.282,28.981,530,39.6,543.965a2.436,2.436,0,0,1-.463,3.408A2.411,2.411,0,0,1,37.67,547.87Z" transform="translate(0 298.634)" fill="#ffb961"/>
    <path id="Path_175" data-name="Path 175" d="M602.167,619.228a2.452,2.452,0,0,1-1.623-4.2c7.789-7.377,15.265-14.809,22.222-22.087l.206-.233.076-.1c12.725-13.345,25.04-27.444,36.611-41.916a2.406,2.406,0,0,1,1.886-.9,2.369,2.369,0,0,1,1.485.516,2.45,2.45,0,0,1,.938,1.645,2.392,2.392,0,0,1-.511,1.782A645.792,645.792,0,0,1,603.9,618.566a2.4,2.4,0,0,1-1.661.662Z" transform="translate(361.085 329.404)" fill="#900048"/>
    <path id="Path_176" data-name="Path 176" d="M572.253,600.626a2.432,2.432,0,0,1-1.57-4.16c6.384-6.286,12.841-12.963,19.194-19.847,2.063-2.24,4.088-4.5,6.109-6.768,0,0,1.779-1.983,2.237-2.5q3.435-3.9,6.784-7.843l1.009-1.188a562.818,562.818,0,0,0,59.514-85.364,2.418,2.418,0,0,1,2.1-1.224,2.379,2.379,0,0,1,1.159.3A2.473,2.473,0,0,1,670,473.52a2.4,2.4,0,0,1-.223,1.841,563.017,563.017,0,0,1-60.027,86.076l-1.051,1.234q-3.37,3.96-6.815,7.877c-.452.513-2.759,3.085-2.759,3.085-1.872,2.094-3.744,4.188-5.651,6.257l-.045.034-.233.267c-6.32,6.836-12.773,13.507-19.1,19.74a2.418,2.418,0,0,1-1.7.7Z" transform="translate(342.975 282.037)" fill="#096386"/>
    <path id="Path_177" data-name="Path 177" d="M573.884,609.071a2.431,2.431,0,0,1-1.6-4.261,596.044,596.044,0,0,0,58.335-58.822,2.436,2.436,0,0,1,1.843-.844,2.4,2.4,0,0,1,1.572.58,2.467,2.467,0,0,1,.884,1.7,2.419,2.419,0,0,1-.585,1.777,602.828,602.828,0,0,1-58.846,59.273A2.4,2.4,0,0,1,573.884,609.071Z" transform="translate(343.881 326.589)" fill="#c0394f"/>
    <path id="Path_178" data-name="Path 178" d="M556.351,503.67a2.439,2.439,0,0,1-1.948-3.9,456.823,456.823,0,0,0,43.545-69.8,2.429,2.429,0,0,1,2.177-1.339,2.386,2.386,0,0,1,1.088.262,2.432,2.432,0,0,1,1.078,3.264,462.008,462.008,0,0,1-44,70.547,2.451,2.451,0,0,1-1.618.943A2.375,2.375,0,0,1,556.351,503.67Z" transform="translate(333.238 255.88)" fill="#f3826f"/>
    <path id="Path_179" data-name="Path 179" d="M36.365,185.7a2.152,2.152,0,0,1-1.112-.307l-.418-.247a2.194,2.194,0,0,1-.754-3.016A538.66,538.66,0,0,1,174.691,27.516a2.19,2.19,0,0,1,3.076.466l.272.371a2.2,2.2,0,0,1-.463,3.05A533.827,533.827,0,0,0,38.245,184.638a2.179,2.179,0,0,1-1.878,1.061Z" transform="translate(17.571 12.187)" fill="#900048"/>
    <path id="Path_180" data-name="Path 180" d="M13.463,162.132a2.393,2.393,0,0,1-1.077-.259,2.418,2.418,0,0,1-1.1-3.278,571.338,571.338,0,0,1,30.025-51.449,2.441,2.441,0,0,1,1.538-1.041,2.506,2.506,0,0,1,.479-.047,2.4,2.4,0,0,1,1.342.407,2.428,2.428,0,0,1,.71,3.349,565,565,0,0,0-29.776,51.009A2.4,2.4,0,0,1,13.463,162.132Z" transform="translate(3.769 60.116)" fill="#c0394f"/>
    <path id="Path_181" data-name="Path 181" d="M57.307,75.139a2.182,2.182,0,0,1-1.457-.559l-.366-.326a2.193,2.193,0,0,1-.153-3.108,594.758,594.758,0,0,1,46.206-45.33,2.43,2.43,0,0,1,3.432.222,2.432,2.432,0,0,1-.222,3.431A589,589,0,0,0,58.925,74.426,2.173,2.173,0,0,1,57.307,75.139Z" transform="translate(30.309 11.051)" fill="#f3826f"/>
    <path id="Path_182" data-name="Path 182" d="M10.522,116.515a2.4,2.4,0,0,1-1.29-.379,2.451,2.451,0,0,1-1.1-1.547,2.426,2.426,0,0,1,.334-1.825c10.962-16.839,22.81-33.235,35.213-48.73a2.4,2.4,0,0,1,1.637-.9c.085-.008.169-.013.254-.013A2.455,2.455,0,0,1,47.5,67.084C35.112,82.56,23.353,98.821,12.547,115.417a2.41,2.41,0,0,1-2.025,1.1Z" transform="translate(1.982 34.06)" fill="#00b7a8"/>
    <path id="Path_183" data-name="Path 183" d="M424.7,546a282.441,282.441,0,0,1-110.332-22.347l-1.266-.545q-2.635-1.126-5.259-2.307l-2.057-.942q-2.229-1.027-4.448-2.1c-.789-.381-1.573-.76-2.359-1.147-1.4-.691-2.8-1.4-4.191-2.115l-.6-.31c-.583-.3-1.168-.6-1.75-.9l-.922-.476q-2.5-1.326-5-2.717l-.7-.394q-2.786-1.557-5.549-3.188l-1.17-.691c-2.1-1.252-4.194-2.516-6.248-3.81A282.019,282.019,0,0,1,160.7,367.462a2.419,2.419,0,0,1,1.388-3.167,2.459,2.459,0,0,1,.873-.166,2.413,2.413,0,0,1,2.25,1.525,277.21,277.21,0,0,0,61.121,92.927l.172.174.063.047A280.6,280.6,0,0,0,275.6,497.977q2.982,1.88,6.007,3.672l1.118.662q2.748,1.617,5.516,3.169l.633.357c1.927,1.072,3.874,2.116,5.827,3.143.554.291,2.3,1.183,2.3,1.183,1.38.709,2.765,1.411,4.155,2.1q1.135.562,2.277,1.109,2.2,1.061,4.419,2.083l1.975.9q2.62,1.184,5.259,2.307l1.151.5a279.524,279.524,0,0,0,160.794,17.03l1.557-.307q2.685-.528,5.356-1.1c.728-.156,1.456-.32,2.182-.482q2.4-.54,4.789-1.122s1.674-.408,2.364-.583c1.626-.408,3.249-.84,4.872-1.279l2.06-.559c2.269-.635,4.53-1.29,6.786-1.985l.125-.04c.889-.272,1.666-.524,2.444-.774l1.7-.543c.564-.18,1.131-.358,1.694-.546.786-.26,1.567-.53,2.349-.8l1.49-.514c.707-.241,1.414-.484,2.118-.734.673-.239,1.343-.487,2.015-.734l1.21-.445c.916-.337,1.832-.675,2.745-1.024.564-.215,2.327-.908,2.327-.908q1.829-.716,3.649-1.454l1.893-.786q2.049-.853,4.085-1.735l1.441-.635c1.522-.673,3.023-1.351,4.518-2.044l1.04-.484q2.466-1.157,4.906-2.356l.627-.309q2.668-1.323,5.307-2.7l.2-.106a279.414,279.414,0,0,0,103.34-93.385,2.428,2.428,0,0,1,3.368-.689,2.46,2.46,0,0,1,1.073,1.589,2.269,2.269,0,0,1-.355,1.735,282.692,282.692,0,0,1-67.277,71.235l-.182.137-.055.051a283.508,283.508,0,0,1-31.99,20.587l-.215.119q-2.668,1.473-5.37,2.886l-.4.209q-2.591,1.35-5.213,2.651l-.749.368c-1.644.808-3.264,1.586-4.89,2.349l-1.162.542q-2.234,1.032-4.482,2.026l-1.57.693q-2.029.882-4.08,1.734l-1.983.823c-1.22.5-2.446.982-3.67,1.462,0,0-1.795.705-2.4.935-1,.382-2.013.754-3.023,1.125l-.982.362c-.685.254-1.371.508-2.06.754-.712.254-1.43.5-2.15.746l-1.578.543c-.776.268-1.551.537-2.328.794-.606.2-1.212.394-1.819.586l-1.832.585c-.792.257-1.586.513-2.385.758l-.191.056q-3.348,1.024-6.731,1.967l-3.244.882c-.775.212-1.549.424-2.328.625,0,0-3.05.754-3.839.945-1.708.416-3.3.791-4.9,1.151q-1.15.258-2.293.508-2.673.579-5.346,1.1l-1.686.333A285.111,285.111,0,0,1,424.711,546Z" transform="translate(94.496 216.735)" fill="#c0394f"/>
    <path id="Path_184" data-name="Path 184" d="M138.257,206.718a2.4,2.4,0,0,1-1.5-.517,2.437,2.437,0,0,1-.411-3.415C182.785,143.617,247.924,98,319.767,74.337c5.565-1.832,11.232-3.556,16.843-5.123.987-.273,2.3-.627,3.615-.977a2.4,2.4,0,0,1,.625-.082,2.43,2.43,0,0,1,2.357,1.833l.061.241a2.192,2.192,0,0,1-1.563,2.632A384,384,0,0,0,140.174,205.788a2.4,2.4,0,0,1-1.313.856A2.478,2.478,0,0,1,138.257,206.718Z" transform="translate(79.512 37.114)" fill="#f0eec8"/>
    <path id="Path_185" data-name="Path 185" d="M648.4,247.786a2.426,2.426,0,0,1-2.079-1.163A379.75,379.75,0,0,0,412.378,75.866c-2.966-.728-6-1.433-9.015-2.1l-1.965-.432c-3.068-.656-6.3-1.3-9.6-1.919l-1.62-.309c-3.386-.619-6.868-1.2-10.348-1.74l-1.044-.166c-3.775-.57-7.506-1.081-11.089-1.517l-.17-.021c-11.438-1.385-23.187-2.258-34.924-2.594a2.439,2.439,0,0,1-2.361-2.462,2.469,2.469,0,0,1,.75-1.761,2.422,2.422,0,0,1,1.684-.675c11.854.349,23.714,1.239,35.318,2.65l.591.074c1.665.206,3.325.416,4.98.641l1.838.26c1.268.178,2.537.358,3.8.55.884.133,1.761.273,2.637.413l3.072.492q2.586.429,5.156.9l.614.108c8.02,1.457,16.033,3.175,23.82,5.107l.22.066A384.689,384.689,0,0,1,650.467,244.084a2.428,2.428,0,0,1-.8,3.344,2.463,2.463,0,0,1-.672.284A2.4,2.4,0,0,1,648.4,247.786Z" transform="translate(197.497 32.271)" fill="#900048"/>
    <path id="Path_186" data-name="Path 186" d="M169.981,322.13a2.379,2.379,0,0,1-.652-.092,2.455,2.455,0,0,1-1.531-1.181,2.4,2.4,0,0,1-.185-1.841A264.773,264.773,0,0,1,350.934,141.285a2.426,2.426,0,0,1,2.986,1.708,2.433,2.433,0,0,1-1.71,2.984A259.884,259.884,0,0,0,172.258,320.441,2.371,2.371,0,0,1,169.981,322.13Z" transform="translate(98.736 81.442)" fill="#ffb961"/>
    <path id="Path_187" data-name="Path 187" d="M424.722,563.535A264.549,264.549,0,0,1,162.887,335.509l-.037-.286q-.511-3.734-.921-7.493l-.079-.66-.114-1.212c-.164-1.625-.32-3.246-.455-4.874-.082-.98-.153-1.957-.222-2.934-.095-1.31-.188-2.614-.262-3.924-.084-1.43-.145-2.855-.206-4.284l-.031-.749c-.027-.612-.053-1.224-.072-1.837-.035-1.041-.058-2.013-.076-2.929a2.43,2.43,0,0,1,4.859-.1c.018.842.042,1.772.076,2.891.019.583.1,2.462.1,2.462q.087,2.138.2,4.27c.076,1.282.164,2.56.255,3.837.069.958.138,1.917.219,2.873q.2,2.422.45,4.827l.183,1.784q.4,3.683.9,7.342l.045.347c1.13,8.118,2.647,16.233,4.5,24.11l.018.09a257.055,257.055,0,0,0,89.563,141.99,259.86,259.86,0,0,0,269.876,34.7,2.379,2.379,0,0,1,.993-.217,2.432,2.432,0,0,1,1,4.65,267.378,267.378,0,0,1-108.932,23.348Z" transform="translate(94.43 178.965)" fill="#c0394f"/>
    <path id="Path_188" data-name="Path 188" d="M239.389,487.886a2.4,2.4,0,0,1-1.483-.516,302.709,302.709,0,0,1-81.421-98.881,2.431,2.431,0,1,1,4.321-2.229,297.825,297.825,0,0,0,80.087,97.273,2.449,2.449,0,0,1-1.208,4.334A2.29,2.29,0,0,1,239.389,487.886Z" transform="translate(91.88 229.366)" fill="#096386"/>
    <path id="Path_189" data-name="Path 189" d="M361.129,695.714a302.647,302.647,0,0,1-94.615-15.162,2.445,2.445,0,0,1,.763-4.764,2.482,2.482,0,0,1,.762.122,297.68,297.68,0,0,0,93.09,14.942,303.646,303.646,0,0,0,41.671-2.894c2.328-.323,4.652-.688,6.972-1.065q1.528-.251,3.05-.516,2.415-.419,4.827-.877,1.5-.282,3-.582c1.686-.337,3.365-.694,5.042-1.059,0,0,2.047-.444,2.663-.583q3-.682,5.981-1.43l1.642-.4c2.72-.693,5.349-1.4,7.818-2.1l.281-.08q3.661-1.044,7.29-2.182l1.74-.559q2.943-.94,5.854-1.93l1.957-.681q2.9-1.015,5.769-2.081A300.379,300.379,0,0,0,659.81,422.936l.13-1.216c.13-1.269.246-2.532.36-3.8l.032-.341c.082-.906.164-1.813.236-2.72l.125-1.708c.545-7.392.82-14.827.82-22.1,0-1.518-.029-3.039-.059-4.559l-.039-2.235c-.01-.7-.019-1.392-.04-2.089-.043-1.48-.116-2.957-.186-4.435l-.061-1.277c-.061-1.276-.122-2.552-.2-3.828-.108-1.732-.235-3.461-.37-5.192q-.164-2.041-.355-4.073c-.175-1.872-.352-3.739-.561-5.6-.071-.641-.151-1.281-.23-1.922l-.117-.93a305.621,305.621,0,0,0-5.451-31.271l-.068-.3c-.58-2.51-1.2-5.031-1.849-7.544l-.318-1.234q-.921-3.507-1.922-6.992l-.551-1.866c-.635-2.156-1.286-4.314-1.972-6.463-.2-.628-.41-1.252-.619-1.877l-.431-1.292c-.569-1.731-1.139-3.461-1.743-5.179-1.07-3.037-2.079-5.778-3.088-8.385l-.464-1.163c-1.106-2.828-2.144-5.38-3.172-7.813l-.564-1.294c-1.138-2.651-2.279-5.216-3.392-7.625l-.558-1.187c-1.191-2.544-2.431-5.1-3.683-7.591l-.572-1.134c-1.519-2.984-2.934-5.669-4.329-8.214l-.018-.032,0,0a298.282,298.282,0,0,0-27.253-41.192c-.064-.112-.247-.4-.247-.4l-.088-.112a300.309,300.309,0,0,0-50.093-49.813,2.449,2.449,0,0,1,1.188-4.34,2.51,2.51,0,0,1,.309-.021,2.389,2.389,0,0,1,1.474.509A301.522,301.522,0,0,1,628.785,244.1c1.5,2.748,2.979,5.549,4.414,8.377l1.284,2.536c.374.733.75,1.467,1.11,2.209.448.922.877,1.848,1.306,2.775l1.2,2.568c1.178,2.549,2.338,5.155,3.445,7.74l.572,1.316c1.107,2.622,2.193,5.295,3.227,7.943l.472,1.179c1.081,2.81,2.139,5.679,3.138,8.521.55,1.562,1.069,3.135,1.588,4.708l.7,2.1c.188.559.374,1.117.553,1.678.7,2.184,1.356,4.38,2.007,6.579l.553,1.875c.686,2.372,1.334,4.745,1.959,7.127l.32,1.229q.993,3.847,1.888,7.716l.055.244c2.055,8.947,3.7,17.812,4.883,26.343a308.788,308.788,0,0,1,2.939,42.343c0,7.21-.283,14.672-.842,22.175l-.145,1.935c-.079.98-.167,1.964-.255,2.945-.119,1.339-.244,2.674-.384,4.006l-.117,1.109a303.938,303.938,0,0,1-12.7,60.33,2.708,2.708,0,0,1-.2.435l-.141.259-.092.281a305.157,305.157,0,0,1-46.8,89.923l-.153.2-.023.04-1.6,2.071c-.508.665-1.012,1.329-1.527,1.988l-.209.243a303.884,303.884,0,0,1-131.835,96.863l-.222.085-.05.026-.614.222q-3.013,1.126-6.066,2.19l-1.829.636q-3.049,1.041-6.124,2.017l-1.618.521c-5.216,1.629-10.488,3.125-15.67,4.445l-1.681.41q-3.02.752-6.058,1.449c-.633.145-2.757.6-2.757.6-1.678.365-3.36.723-5.047,1.061-1.051.211-2.1.411-3.148.611q-2.374.451-4.764.865-1.625.282-3.249.55l-1.716.291-.366.027-1.348.212c-1.194.188-2.388.378-3.585.543A308.687,308.687,0,0,1,361.129,695.714Z" transform="translate(157.806 87.137)" fill="#f3826f"/>
    <path id="Path_190" data-name="Path 190" d="M613.225,76.49a2.392,2.392,0,0,1-1.785-.791,589.551,589.551,0,0,0-46.995-46.232,2.431,2.431,0,1,1,3.211-3.652A594.06,594.06,0,0,1,615.1,72.5a2.32,2.32,0,0,1-.217,3.336,2.5,2.5,0,0,1-1.657.659Z" transform="translate(339.128 11.051)" fill="#f0eec8"/>
    <path id="Path_191" data-name="Path 191" d="M643.807,122.045a2.409,2.409,0,0,1-2.015-1.081,581.193,581.193,0,0,0-37.336-50.31,2.434,2.434,0,0,1,3.746-3.109,585.428,585.428,0,0,1,37.656,50.731,2.411,2.411,0,0,1-.7,3.355,2.466,2.466,0,0,1-1.35.415Z" transform="translate(363.574 36.214)" fill="#096386"/>
    <path id="Path_192" data-name="Path 192" d="M605.652,600.562a2.4,2.4,0,0,1-1.692-.7,2.424,2.424,0,0,1-.069-3.416,618.157,618.157,0,0,0,58.675-70.537,2.406,2.406,0,0,1,3.344-.575,2.461,2.461,0,0,1,1.019,1.588,2.424,2.424,0,0,1-.415,1.8,623.628,623.628,0,0,1-59.127,71.095,2.381,2.381,0,0,1-1.7.736Z" transform="translate(363.161 314.304)" fill="#f0eec8"/>
    <path id="Path_193" data-name="Path 193" d="M49.621,507.236a2.461,2.461,0,0,1-.582-.071,2.414,2.414,0,0,1-1.475-1.1c-7.837-13.186-15.138-26.724-21.7-40.236-6.628-13.652-12.784-27.8-18.3-42.046a2.409,2.409,0,0,1,1.4-3.129,2.469,2.469,0,0,1,.881-.167,2.423,2.423,0,0,1,2.246,1.541c5.465,14.105,11.568,28.128,18.145,41.676,6.522,13.435,13.748,26.849,21.478,39.87a2.418,2.418,0,0,1-.818,3.289,2.445,2.445,0,0,1-1.277.37Z" transform="translate(1.57 250.939)" fill="#900048"/>
    <path id="Path_194" data-name="Path 194" d="M186.969,631.4a2.406,2.406,0,0,1-1.335-.4A541.492,541.492,0,0,1,55.042,508.54a2.436,2.436,0,0,1-.476-1.809,2.4,2.4,0,0,1,.948-1.613,2.513,2.513,0,0,1,1.538-.55,2.427,2.427,0,0,1,1.938.954,540.352,540.352,0,0,0,129.423,121.3,2.415,2.415,0,0,1,.681,3.32l-.1.149a2.435,2.435,0,0,1-1.543,1.057A2.365,2.365,0,0,1,186.969,631.4Z" transform="translate(30.18 301.964)" fill="#c0394f"/>
    <path id="Path_195" data-name="Path 195" d="M352.184,556.615a387.942,387.942,0,0,1-49.728-3.2c-5.812-.754-11.669-1.65-17.4-2.666-1.008-.178-2.341-.427-3.683-.681a2.429,2.429,0,0,1-1.93-2.87l.045-.233a2.191,2.191,0,0,1,2.14-1.747,2.25,2.25,0,0,1,.411.039,381.441,381.441,0,0,0,70.164,6.5A384.117,384.117,0,0,0,521.231,512.55a2.39,2.39,0,0,1,1.073-.254,2.331,2.331,0,0,1,.482.05,2.431,2.431,0,0,1,.6,4.563A389.023,389.023,0,0,1,352.2,556.615Z" transform="translate(166.636 306.654)" fill="#f0eec8"/>
    <path id="Path_196" data-name="Path 196" d="M241.094,586.188a2.415,2.415,0,0,1-.985-.209,463.064,463.064,0,0,1-87.782-51.34,2.43,2.43,0,0,1,1.456-4.38,2.41,2.41,0,0,1,1.448.481A458.162,458.162,0,0,0,242.1,581.528a2.431,2.431,0,0,1,1.237,3.17,2.458,2.458,0,0,1-1.358,1.324,2.424,2.424,0,0,1-.881.166Z" transform="translate(88.928 317.556)" fill="#f0eec8"/>
    <path id="Path_197" data-name="Path 197" d="M232.014,550.4a2.434,2.434,0,0,1-1.866-.868A241.761,241.761,0,0,1,173.012,398.86q-.089-3.309-.088-6.6a244.778,244.778,0,0,1,26.891-111.419,247.719,247.719,0,0,1,62.143-77.087l.251-.23.111-.116a244.416,244.416,0,0,1,323.126,11.663q2.316,2.2,4.573,4.461a2.388,2.388,0,0,1-.035,3.408,2.453,2.453,0,0,1-1.718.709,2.419,2.419,0,0,1-1.723-.715q-2.189-2.193-4.443-4.334A238.49,238.49,0,0,0,417.332,152.88a241.021,241.021,0,0,0-142.6,47.019l-.146.114a239.231,239.231,0,0,0-96.8,192.249q0,3.223.087,6.468a236.94,236.94,0,0,0,56,147.677,2.432,2.432,0,0,1-1.859,4Z" transform="translate(102.022 85.58)" fill="#c0394f"/>
    <path id="Path_198" data-name="Path 198" d="M378.347,576.159a420.293,420.293,0,0,1-140.893-24.285,2.187,2.187,0,0,1-1.324-2.817l.169-.463a2.2,2.2,0,0,1,2.054-1.43,2.172,2.172,0,0,1,.733.127,415.438,415.438,0,0,0,139.275,24,422.749,422.749,0,0,0,95.087-10.9,2.48,2.48,0,0,1,.551-.063,2.431,2.431,0,0,1,.543,4.8,427.636,427.636,0,0,1-96.19,11.031Z" transform="translate(140.3 327.815)" fill="#f3826f"/>
    <g id="Group_102" data-name="Group 102" transform="translate(-306.144 159.481)">
      <path id="Path_83" data-name="Path 83" d="M944.828,458.471c6.546,0,10.822,4.5,10.822,10.6v.089c0,6.1-4.276,10.51-10.822,10.51h-6.145v-21.2ZM933.2,484.656h11.623c9.8,0,16.566-6.813,16.566-15.586v-.089c0-8.773-6.769-15.5-16.566-15.5H933.2Zm-18.427.49c8.149,0,13.4-4.676,13.4-13.983V453.483H922.7V471.43c0,5.745-2.984,8.639-7.838,8.639-4.9,0-7.882-3.073-7.882-8.862V453.483h-5.478V471.43c0,9.04,5.166,13.716,13.271,13.716m-33.22-5.032c-6.19,0-10.6-4.987-10.6-11.044v-.089c0-6.056,4.32-11,10.51-11s10.6,5.032,10.6,11.089v.089c0,6.057-4.32,10.955-10.51,10.955m-.089,5.076a15.972,15.972,0,0,0,16.343-16.12v-.089a16.3,16.3,0,0,0-32.6.089v.089a15.823,15.823,0,0,0,16.255,16.031m-38.44-.534h21.866v-4.987H848.506V453.483h-5.477Zm-16.093.534a16.084,16.084,0,0,0,12.647-5.522l-3.518-3.563c-2.672,2.494-5.121,4.008-8.951,4.008-5.968,0-10.288-4.943-10.288-11.044v-.089c0-6.1,4.364-11,10.288-11,3.563,0,6.234,1.559,8.728,3.874l3.518-4.052a16.248,16.248,0,0,0-12.2-4.854,15.775,15.775,0,0,0-16.077,16.12v.089a15.678,15.678,0,0,0,15.854,16.031m-45.467-.534h5.522v-26.1h9.885v-5.076H771.583v5.076h9.887Zm-37.84,0h23.335v-4.9H749.107v-8.372h15.63v-4.9h-15.63v-8.1h17.635v-4.9H743.63Zm-15.6.445c6.547,0,11.134-3.473,11.134-9.307V475.7c0-5.166-3.384-7.526-9.976-9.129-6.011-1.425-7.436-2.494-7.436-4.9v-.089c0-2.049,1.87-3.7,5.076-3.7a14.159,14.159,0,0,1,8.461,3.206l2.939-4.142a17.279,17.279,0,0,0-11.311-3.919c-6.19,0-10.643,3.7-10.643,9.04v.089c0,5.744,3.741,7.7,10.376,9.307,5.789,1.336,7.036,2.538,7.036,4.765v.089c0,2.316-2.137,3.919-5.523,3.919-3.83,0-6.857-1.47-9.841-4.053l-3.3,3.919a19.2,19.2,0,0,0,13,4.987m-33.59-15.408V458.471H700.8c4.1,0,6.724,1.915,6.724,5.567v.089c0,3.251-2.583,5.566-6.724,5.566Zm-5.478,14.963h5.478v-10.02h6.19c6.858,0,12.469-3.652,12.469-10.643V463.9c0-6.279-4.543-10.42-11.846-10.42H688.958Z" transform="translate(0 -114.622)" fill="#fff"/>
      <path id="Path_84" data-name="Path 84" d="M954.7,548.466h1.093v-4.2a2.159,2.159,0,0,1,2.2-2.3,1.956,1.956,0,0,1,2.03,2.214v4.286h1.093V543.91a2.68,2.68,0,0,0-2.81-2.938,2.779,2.779,0,0,0-2.512,1.433v-1.277H954.7Zm-5.463-.809a2.753,2.753,0,0,1-2.711-2.853v-.028a2.708,2.708,0,0,1,2.683-2.839,2.776,2.776,0,0,1,2.725,2.867v.029a2.708,2.708,0,0,1-2.7,2.824m-.028.979a3.81,3.81,0,0,0,3.846-3.832v-.028a3.825,3.825,0,0,0-7.65.028v.029a3.759,3.759,0,0,0,3.8,3.8m-6.566-.17h1.093v-7.338H942.64Zm-.071-8.941h1.249v-1.207h-1.249Zm-2.721,9.069a2.748,2.748,0,0,0,1.32-.313v-.937a2.3,2.3,0,0,1-1.065.256,1.086,1.086,0,0,1-1.235-1.221v-4.286H941.2v-.965h-2.328v-2.214h-1.093v2.214h-1.022v.965h1.022v4.428a1.868,1.868,0,0,0,2.072,2.073m-7.792-.838c-.994,0-1.845-.539-1.845-1.461v-.029c0-.923.766-1.519,2.143-1.519a7.648,7.648,0,0,1,2.158.313v.71a2.219,2.219,0,0,1-2.456,1.987m-.213.866a3.217,3.217,0,0,0,2.655-1.263v1.107h1.05v-4.485a2.9,2.9,0,0,0-.752-2.143,3.222,3.222,0,0,0-2.371-.809,6.06,6.06,0,0,0-2.668.61l.327.895a5.1,5.1,0,0,1,2.228-.539c1.377,0,2.186.681,2.186,2v.255a7.8,7.8,0,0,0-2.257-.312c-1.859,0-3.137.823-3.137,2.37v.028a2.471,2.471,0,0,0,2.739,2.285m-7.484-.156h1.093v-2.924c0-2.214,1.306-3.364,2.909-3.364h.085V541a3.142,3.142,0,0,0-2.994,2.043v-1.916h-1.093Zm-5.463-.809a2.753,2.753,0,0,1-2.711-2.853v-.028a2.708,2.708,0,0,1,2.683-2.839,2.776,2.776,0,0,1,2.725,2.867v.029a2.708,2.708,0,0,1-2.7,2.824m-.028.979a3.81,3.81,0,0,0,3.846-3.832v-.028a3.825,3.825,0,0,0-7.65.028v.029a3.759,3.759,0,0,0,3.8,3.8m-8.77-.994a2.731,2.731,0,0,1-2.654-2.839v-.028a2.736,2.736,0,0,1,2.654-2.825,2.643,2.643,0,0,1,2.583,2.839v.028a2.589,2.589,0,0,1-2.583,2.824m.2.98A3.593,3.593,0,0,0,913.8,544.8v-.028a3.579,3.579,0,0,0-3.506-3.8,3.3,3.3,0,0,0-2.81,1.632v-4.5h-1.093v10.361h1.093v-1.4a3.31,3.31,0,0,0,2.81,1.561m-9.423-.866c-.994,0-1.845-.539-1.845-1.461v-.029c0-.923.766-1.519,2.143-1.519a7.647,7.647,0,0,1,2.158.313v.71a2.219,2.219,0,0,1-2.456,1.987m-.213.866a3.216,3.216,0,0,0,2.654-1.263v1.107h1.05v-4.485a2.9,2.9,0,0,0-.752-2.143,3.221,3.221,0,0,0-2.371-.809,6.06,6.06,0,0,0-2.668.61l.327.895a5.1,5.1,0,0,1,2.228-.539c1.377,0,2.186.681,2.186,2v.255a7.8,7.8,0,0,0-2.257-.312c-1.859,0-3.137.823-3.137,2.37v.028a2.471,2.471,0,0,0,2.74,2.285m-5.429-.156h1.093V538.1h-1.093Zm-3.277,0h1.093V538.1h-1.093Zm-5.531-.809a2.753,2.753,0,0,1-2.711-2.853v-.028a2.708,2.708,0,0,1,2.682-2.839,2.776,2.776,0,0,1,2.725,2.867v.029a2.708,2.708,0,0,1-2.7,2.824m-.029.979a3.81,3.81,0,0,0,3.847-3.832v-.028a3.825,3.825,0,0,0-7.65.028v.029a3.759,3.759,0,0,0,3.8,3.8m-7.624,0a3.78,3.78,0,0,0,2.995-1.419l-.7-.653a3.026,3.026,0,0,1-2.242,1.093,2.742,2.742,0,0,1-2.7-2.853v-.028a2.707,2.707,0,0,1,2.625-2.839,2.963,2.963,0,0,1,2.228,1.107l.724-.766a3.822,3.822,0,0,0-6.7,2.526v.029a3.767,3.767,0,0,0,3.761,3.8m-15.74-.17h1.093v-4.2a2.159,2.159,0,0,1,2.2-2.3,1.956,1.956,0,0,1,2.03,2.214v4.286h1.093V543.91a2.68,2.68,0,0,0-2.81-2.938,2.779,2.779,0,0,0-2.512,1.433v-4.3h-1.093Zm-5.855-1.533a2.484,2.484,0,0,1-2.541-2.5v-.029a2.427,2.427,0,0,1,2.541-2.469,2.571,2.571,0,0,1,2.7,2.484v.028a2.589,2.589,0,0,1-2.7,2.484m.014,3.832a3.857,3.857,0,0,0,2.8-.979,3.535,3.535,0,0,0,.937-2.6v-6.061H859.83v1.32a3.474,3.474,0,0,0-6.316,1.987v.028a3.393,3.393,0,0,0,3.449,3.435,3.478,3.478,0,0,0,2.881-1.547v.866a2.412,2.412,0,0,1-2.668,2.612,4.689,4.689,0,0,1-2.824-.937l-.5.851a5.752,5.752,0,0,0,3.336,1.022m-8.933-2.143a2.8,2.8,0,0,0,2.512-1.433v1.277h1.079v-7.338h-1.079v4.2a2.167,2.167,0,0,1-2.2,2.3,1.955,1.955,0,0,1-2.029-2.214v-4.286h-1.093v4.556a2.681,2.681,0,0,0,2.81,2.938m-8.189-.965a2.753,2.753,0,0,1-2.711-2.853v-.028a2.708,2.708,0,0,1,2.682-2.839,2.776,2.776,0,0,1,2.725,2.867v.029a2.708,2.708,0,0,1-2.7,2.824m-.029.979a3.81,3.81,0,0,0,3.847-3.832v-.028a3.825,3.825,0,0,0-7.65.028v.029a3.759,3.759,0,0,0,3.8,3.8m-8.5-.17h1.093v-2.924c0-2.214,1.306-3.364,2.909-3.364h.085V541a3.142,3.142,0,0,0-2.995,2.043v-1.916h-1.093Zm-8.443,0h1.093v-4.2a2.159,2.159,0,0,1,2.2-2.3,1.956,1.956,0,0,1,2.029,2.214v4.286h1.093V543.91a2.681,2.681,0,0,0-2.81-2.938,2.778,2.778,0,0,0-2.512,1.433v-4.3h-1.093Zm-2.742.128a2.745,2.745,0,0,0,1.32-.313v-.937a2.3,2.3,0,0,1-1.064.256,1.086,1.086,0,0,1-1.235-1.221v-4.286H821.7v-.965H819.37v-2.214h-1.093v2.214h-1.022v.965h1.022v4.428a1.868,1.868,0,0,0,2.072,2.073m-14.888-.128h1.093v-4.2a2.159,2.159,0,0,1,2.2-2.3,1.956,1.956,0,0,1,2.029,2.214v4.286h1.093V543.91a2.681,2.681,0,0,0-2.81-2.938,2.779,2.779,0,0,0-2.512,1.433v-1.277h-1.093ZM800,547.657a2.753,2.753,0,0,1-2.711-2.853v-.028a2.708,2.708,0,0,1,2.682-2.839,2.776,2.776,0,0,1,2.725,2.867v.029a2.707,2.707,0,0,1-2.7,2.824m-.029.979a3.81,3.81,0,0,0,3.847-3.832v-.028a3.825,3.825,0,0,0-7.65.028v.029a3.759,3.759,0,0,0,3.8,3.8m-6.566-.17H794.5v-7.338H793.4Zm-.071-8.941h1.249v-1.207h-1.249Zm-2.72,9.069a2.747,2.747,0,0,0,1.32-.313v-.937a2.3,2.3,0,0,1-1.064.256,1.086,1.086,0,0,1-1.235-1.221v-4.286h2.327v-.965h-2.327v-2.214H788.54v2.214h-1.022v.965h1.022v4.428a1.868,1.868,0,0,0,2.073,2.073m-7.792-.838c-.993,0-1.845-.539-1.845-1.461v-.029c0-.923.766-1.519,2.143-1.519a7.644,7.644,0,0,1,2.157.313v.71a2.219,2.219,0,0,1-2.456,1.987m-.213.866a3.216,3.216,0,0,0,2.654-1.263v1.107h1.05v-4.485a2.9,2.9,0,0,0-.752-2.143,3.221,3.221,0,0,0-2.37-.809,6.062,6.062,0,0,0-2.669.61l.327.895a5.1,5.1,0,0,1,2.228-.539c1.377,0,2.186.681,2.186,2v.255a7.8,7.8,0,0,0-2.257-.312c-1.859,0-3.137.823-3.137,2.37v.028a2.472,2.472,0,0,0,2.74,2.285m-7.525-.1h.965l3.193-7.394h-1.178l-2.484,6.089-2.47-6.089H771.9Zm-7.51-.865a2.753,2.753,0,0,1-2.711-2.853v-.028a2.708,2.708,0,0,1,2.683-2.839,2.776,2.776,0,0,1,2.725,2.867v.029a2.708,2.708,0,0,1-2.7,2.824m-.028.979a3.81,3.81,0,0,0,3.846-3.832v-.028a3.825,3.825,0,0,0-7.65.028v.029a3.759,3.759,0,0,0,3.8,3.8m-11.78-.17h1.093v-4.2a2.159,2.159,0,0,1,2.2-2.3,1.956,1.956,0,0,1,2.029,2.214v4.286h1.093V543.91a2.68,2.68,0,0,0-2.81-2.938,2.78,2.78,0,0,0-2.512,1.433v-1.277h-1.093Zm-8.444,0h1.093v-4.2a2.159,2.159,0,0,1,2.2-2.3,1.956,1.956,0,0,1,2.03,2.214v4.286h1.093V543.91a2.68,2.68,0,0,0-2.81-2.938,2.779,2.779,0,0,0-2.512,1.433v-1.277H747.32Zm-3.519,0h1.121v-9.935H743.8Z" transform="translate(-27.281 -156.981)" fill="#fff"/>
      <path id="Path_85" data-name="Path 85" d="M922.07,278.761A77.748,77.748,0,0,1,928.5,273a55.018,55.018,0,0,0-6.194-4.055c-1.784,1.474-3.546,3.069-5.265,4.788-14.78,14.779-20.783,32.737-13.41,40.111s25.332,1.37,40.112-13.409c1.719-1.719,3.313-3.482,4.787-5.265a54.9,54.9,0,0,0-4.054-6.195,77.787,77.787,0,0,1-5.762,6.43c-12,12-25.457,18.006-30.054,13.41s1.408-18.051,13.41-30.054m35.082-18.438c-4.863-4.863-14.334-3.9-24.459,1.554a67.727,67.727,0,0,1,6.232,4.4c5.859-2.817,10.768-3.352,13.2-.922s1.9,7.339-.922,13.2a67.587,67.587,0,0,1,4.4,6.232c5.458-10.125,6.417-19.6,1.553-24.459" transform="translate(-105.217 -17.237)" fill="#fff"/>
      <path id="Path_86" data-name="Path 86" d="M942.811,297l-1.771-1.771a8.7,8.7,0,0,1-2.379,2.413l1.756,1.757A40.207,40.207,0,0,1,883.6,242.586l1.756,1.756a8.708,8.708,0,0,1,2.413-2.379L886,240.193A40.209,40.209,0,0,1,942.811,297m3.812-60.622a47.327,47.327,0,1,0,0,66.93,47.327,47.327,0,0,0,0-66.93" transform="translate(-87.982)" fill="#fff"/>
      <path id="Path_87" data-name="Path 87" d="M916.312,288.974a54.893,54.893,0,0,0-4.055,6.195c1.474,1.784,3.069,3.546,4.787,5.264s3.482,3.314,5.265,4.788a55,55,0,0,0,6.195-4.055,78.75,78.75,0,0,1-12.192-12.192m27.433-15.242c-14.779-14.779-32.737-20.784-40.111-13.41-4.863,4.864-3.9,14.334,1.554,24.459a67.718,67.718,0,0,1,4.4-6.233c-2.817-5.859-3.352-10.767-.922-13.2,4.6-4.6,18.052,1.408,30.053,13.41s18.007,25.457,13.41,30.053c-2.431,2.43-7.338,1.9-13.2-.922a67.557,67.557,0,0,1-6.231,4.4c10.124,5.458,19.594,6.417,24.458,1.553,7.374-7.374,1.369-25.331-13.41-40.111" transform="translate(-105.219 -17.236)" fill="#fff"/>
    </g>
  </g>
</svg>
